<svg width="140" height="42" viewBox="0 0 140 42" fill="none" xmlns="http://www.w3.org/2000/svg">
<path d="M8.80613 0.729896L8.80434 0.729922C8.04148 0.737858 7.28047 0.797202 6.52799 0.9074C5.7987 1.01679 5.09349 1.22272 4.43619 1.51746C3.78111 1.81424 3.18488 2.19876 2.66834 2.65574L2.66685 2.65706L2.66685 2.65706C2.14848 3.11199 1.71888 3.63562 1.39279 4.20667L1.39228 4.20756C1.06383 4.78001 0.837186 5.39146 0.718751 6.02073L0.71857 6.02169C0.59373 6.67792 0.526587 7.3415 0.51768 8.00657L0.51754 8.01698L0.517432 8.01698C0.510232 8.22738 0.507463 8.43455 0.504618 8.64745C0.50326 8.74908 0.501884 8.85203 0.5 8.95726V32.8665C0.501857 32.9715 0.503221 33.0733 0.504564 33.1734C0.507428 33.3872 0.510194 33.5935 0.51744 33.808L0.517783 33.8182H0.51768C0.52659 34.4832 0.593732 35.1468 0.718569 35.803L0.718808 35.8042C0.836892 36.4337 1.06351 37.0455 1.39222 37.618L1.39247 37.6185C1.71822 38.1873 2.14761 38.7086 2.66573 39.1606L2.6699 39.1642L2.66988 39.1642C3.18362 39.6225 3.77939 40.0067 4.43531 40.3008L4.43585 40.301C5.09325 40.5967 5.79848 40.804 6.52792 40.9151C7.28072 41.0245 8.0419 41.0839 8.80503 41.0929L8.80886 41.0929C9.16773 41.0999 9.51978 41.1038 9.87426 41.1038H9.87671C10.3031 41.1059 10.7258 41.1059 11.155 41.1059H128.851C129.272 41.1059 129.698 41.1059 130.117 41.1038L130.12 41.1038C130.472 41.1038 130.835 41.0999 131.188 41.0929L131.193 41.0928C131.954 41.0843 132.713 41.025 133.464 40.9153C134.196 40.8033 134.905 40.596 135.566 40.3009C136.221 40.0067 136.816 39.6225 137.33 39.1643L137.333 39.1617C137.85 38.7072 138.281 38.1856 138.612 37.6173C138.937 37.0449 139.161 36.4339 139.278 35.8054L139.278 35.8028C139.403 35.1462 139.473 34.4826 139.486 33.8172C139.486 33.8163 139.487 33.8155 139.487 33.8147L139.986 33.8249C139.991 33.5035 139.991 33.1923 139.991 32.871L8.80613 0.729896ZM8.80613 0.729896C8.88193 0.728836 8.95722 0.727737 9.03215 0.726644C9.31654 0.722495 9.59562 0.718423 9.87689 0.716797L8.80613 0.729896ZM128.851 0.714734H11.155H128.851ZM128.851 0.714734L128.924 0.714733M128.851 0.714734L128.924 0.714733M128.924 0.714733C129.321 0.714726 129.722 0.714719 130.117 0.716662L128.924 0.714733ZM139.278 6.0218C139.403 6.6783 139.473 7.34198 139.486 8.00739L130.993 0.726886C131.059 0.727852 131.125 0.728817 131.191 0.729756L131.193 0.729777C131.954 0.737259 132.714 0.796624 133.465 0.907313C134.197 1.01758 134.905 1.22358 135.566 1.51778C136.884 2.11705 137.945 3.06113 138.611 4.20767C138.937 4.78015 139.161 5.39106 139.278 6.01943L139.278 6.0218Z" fill="black" stroke="white"/>
<path d="M34.5314 19.634C34.5536 17.9026 35.4584 16.3034 36.9287 15.3966C35.9969 14.0616 34.4922 13.2456 32.8686 13.1946C31.1604 13.0147 29.5042 14.22 28.6338 14.22C27.7464 14.22 26.4062 13.2125 24.963 13.2422C23.064 13.3038 21.3366 14.3606 20.4128 16.0261C18.4454 19.4433 19.9129 24.4654 21.7975 27.2277C22.7404 28.5802 23.8424 30.0911 25.2843 30.0376C26.6953 29.9788 27.2223 29.1349 28.9256 29.1349C30.6129 29.1349 31.1074 30.0376 32.5786 30.0035C34.0927 29.9788 35.0466 28.6449 35.9564 27.2794C36.6339 26.3157 37.1553 25.2505 37.501 24.1235C35.7028 23.3604 34.5335 21.5926 34.5314 19.634Z" fill="white"/>
<path d="M31.7519 11.3751C32.5774 10.3808 32.9841 9.10295 32.8856 7.81274C31.6244 7.94563 30.4594 8.55037 29.6227 9.50644C28.7964 10.4497 28.3779 11.6838 28.4592 12.9369C29.7373 12.9501 30.9509 12.3744 31.7519 11.3751Z" fill="white"/>
<path fill-rule="evenodd" clip-rule="evenodd" d="M47.5533 26.6088H52.3685L53.5238 30.0341H55.5981L51.0372 17.3611H48.9183L44.3574 30.0341H46.3969L47.5533 26.6088ZM51.8715 25.025H48.0548L49.9373 19.4658H49.9899L51.8715 25.025Z" fill="white"/>
<path fill-rule="evenodd" clip-rule="evenodd" d="M61.6036 30.1313C63.9153 30.1313 65.4471 28.2865 65.4471 25.4153C65.4471 22.552 63.9062 20.6982 61.5689 20.6982C60.366 20.6593 59.2393 21.287 58.6362 22.3317H58.6015V20.7949H56.7715V33.0913H58.662V28.5148H58.7058C59.2831 29.5661 60.4087 30.194 61.6036 30.1313ZM61.073 22.3134C62.5434 22.3134 63.5069 23.5433 63.5069 25.4139C63.5069 27.3015 62.5434 28.5223 61.073 28.5223C59.6286 28.5223 58.657 27.2756 58.657 25.4139C58.657 23.5691 59.6286 22.3134 61.073 22.3134Z" fill="white"/>
<path fill-rule="evenodd" clip-rule="evenodd" d="M71.7383 30.1312C74.05 30.1312 75.5819 28.2865 75.5819 25.4153C75.5819 22.552 74.0411 20.6982 71.7035 20.6982C70.5007 20.6593 69.3739 21.2869 68.7709 22.3316H68.7361V20.7949H66.9062V33.0912H68.7967V28.5148H68.8404C69.4178 29.5661 70.5434 30.1939 71.7383 30.1312ZM71.2042 22.3134C72.6745 22.3134 73.6382 23.5432 73.6382 25.4138C73.6382 27.3015 72.6745 28.5223 71.2042 28.5223C69.7598 28.5223 68.7882 27.2756 68.7882 25.4138C68.7882 23.5691 69.7598 22.3134 71.2042 22.3134Z" fill="white"/>
<path d="M82.2848 26.503C82.4249 27.7598 83.6418 28.585 85.3048 28.585C86.8983 28.585 88.0447 27.7597 88.0447 26.6266C88.0447 25.6429 87.3533 25.0539 85.7161 24.6502L84.079 24.2546C81.7592 23.6925 80.6824 22.6042 80.6824 20.8382C80.6824 18.6516 82.5818 17.1497 85.2789 17.1497C87.9483 17.1497 89.7782 18.6516 89.8398 20.8382H87.9314C87.8172 19.5735 86.7751 18.8101 85.2522 18.8101C83.7292 18.8101 82.6871 19.5825 82.6871 20.7066C82.6871 21.6026 83.3527 22.1298 84.9809 22.5334L86.3728 22.8763C88.9646 23.4912 90.0415 24.5357 90.0415 26.3893C90.0415 28.7603 88.1589 30.2453 85.1648 30.2453C82.3633 30.2453 80.4717 28.7952 80.3496 26.503H82.2848Z" fill="white"/>
<path d="M94.1234 18.6106V20.7972H95.8747V22.299H94.1234V27.3929C94.1234 28.1842 94.474 28.5529 95.244 28.5529C95.4518 28.5493 95.6595 28.5345 95.8658 28.509V30.002C95.5197 30.0669 95.1679 30.0962 94.8157 30.0896C92.9512 30.0896 92.2239 29.3871 92.2239 27.5951V22.299H90.8848V20.7972H92.2239V18.6106H94.1234Z" fill="white"/>
<path fill-rule="evenodd" clip-rule="evenodd" d="M101.257 20.6804C98.5955 20.6804 96.8887 22.5072 96.8887 25.4145C96.8887 28.3295 98.5785 30.1484 101.257 30.1484C103.936 30.1484 105.626 28.3295 105.626 25.4145C105.626 22.5072 103.927 20.6804 101.257 20.6804ZM101.259 22.2427C102.791 22.2427 103.702 23.4197 103.702 25.4139C103.702 27.4161 102.791 28.5841 101.259 28.5841C99.727 28.5841 98.817 27.4161 98.817 25.4139C98.817 23.4286 99.727 22.2427 101.259 22.2427Z" fill="white"/>
<path d="M107.186 20.7949H108.989V22.3676H109.032C109.284 21.3552 110.208 20.6583 111.248 20.6982C111.466 20.6974 111.683 20.7212 111.896 20.769V22.543C111.62 22.4586 111.334 22.4199 111.046 22.4283C110.49 22.4057 109.952 22.628 109.574 23.0366C109.195 23.4453 109.013 23.9997 109.076 24.5541V30.0346H107.186V20.7949Z" fill="white"/>
<path fill-rule="evenodd" clip-rule="evenodd" d="M116.639 30.1484C118.722 30.1484 120.351 28.9973 120.605 27.32H118.81C118.465 28.1772 117.6 28.7058 116.683 28.6195C115.995 28.645 115.329 28.3726 114.855 27.8719C114.381 27.3712 114.145 26.6903 114.205 26.0025V25.8878H120.71V25.2381C120.71 22.4365 119.108 20.6804 116.56 20.6804C113.969 20.6804 112.297 22.5601 112.297 25.4583C112.297 28.3474 113.96 30.1484 116.639 30.1484ZM118.818 24.5656H114.213C114.212 23.9418 114.459 23.3432 114.899 22.9028C115.339 22.4624 115.937 22.2169 116.559 22.2205C117.176 22.2073 117.77 22.4528 118.199 22.8979C118.628 23.3431 118.852 23.9475 118.818 24.5656Z" fill="white"/>
<path fill-rule="evenodd" clip-rule="evenodd" d="M49.9555 8.65677C49.4023 8.07065 48.6161 7.76433 47.8136 7.8221H45.6211V13.9114H47.8136C49.6217 13.9114 50.6697 12.7933 50.6697 10.8479C50.7709 10.047 50.5088 9.2429 49.9555 8.65677ZM47.7095 13.052H46.5651V8.68421H47.7095C48.28 8.65245 48.8348 8.87813 49.2221 9.29953C49.6095 9.72092 49.789 10.2939 49.7113 10.8619C49.795 11.4321 49.6182 12.0099 49.2298 12.4348C48.8415 12.8596 48.283 13.0863 47.7095 13.052Z" fill="white"/>
<path fill-rule="evenodd" clip-rule="evenodd" d="M52.7509 9.55842C52.05 9.99472 51.6563 10.7919 51.7348 11.6156C51.6549 12.4401 52.0482 13.2389 52.7497 13.6761C53.451 14.1133 54.3391 14.1133 55.0405 13.6761C55.742 13.2389 56.1353 12.4401 56.0552 11.6156C56.1338 10.7919 55.7401 9.99472 55.0393 9.55842C54.3385 9.12213 53.4516 9.12213 52.7509 9.55842ZM53.8964 10.0343C54.6792 10.0343 55.1253 10.6168 55.1253 11.6129C55.1253 12.613 54.6792 13.195 53.8964 13.195C53.1106 13.195 52.6686 12.617 52.6686 11.6129C52.6686 10.6168 53.1106 10.0343 53.8964 10.0343Z" fill="white"/>
<path d="M61.7993 13.9075H60.8615L59.9147 10.5229H59.8433L58.9005 13.9075H57.9717L56.709 9.31201H57.6259L58.4464 12.8185H58.514L59.4558 9.31201H60.3231L61.2648 12.8185H61.3364L62.1529 9.31201H63.057L61.7993 13.9075Z" fill="white"/>
<path d="M64.1152 9.31494H64.9854V10.045H65.053C65.2879 9.50747 65.8369 9.17868 66.42 9.22623C66.8714 9.19218 67.3138 9.36594 67.6223 9.69844C67.9308 10.0309 68.0718 10.4861 68.0054 10.9354V13.9103H67.1014V11.1632C67.1014 10.4247 66.7816 10.0574 66.113 10.0574C65.8067 10.0431 65.5095 10.1637 65.2993 10.3875C65.089 10.6114 64.9868 10.9161 65.0191 11.222V13.9104H64.1152V9.31494Z" fill="white"/>
<path d="M69.4473 7.51929H70.3513V13.9087H69.4473V7.51929Z" fill="white"/>
<path fill-rule="evenodd" clip-rule="evenodd" d="M72.6182 9.55843C71.9173 9.99473 71.5235 10.7919 71.602 11.6157C71.5221 12.4403 71.9155 13.2389 72.617 13.6762C73.3184 14.1134 74.2065 14.1134 74.908 13.6762C75.6094 13.2389 76.0029 12.4403 75.9229 11.6157C76.0014 10.7919 75.6076 9.99473 74.9068 9.55843C74.2059 9.12213 73.319 9.12213 72.6182 9.55843ZM73.7636 10.0344C74.5464 10.0344 74.9925 10.6169 74.9925 11.613C74.9925 12.6131 74.5464 13.1951 73.7636 13.1951C72.9778 13.1951 72.5358 12.6171 72.5358 11.613C72.5358 10.6169 72.9778 10.0344 73.7636 10.0344Z" fill="white"/>
<path fill-rule="evenodd" clip-rule="evenodd" d="M78.5846 11.2402C77.4948 11.3079 76.8809 11.7849 76.8809 12.6121C76.8824 13.0042 77.0492 13.3775 77.3402 13.6396C77.631 13.9016 78.0189 14.0279 78.4077 13.9874C78.9625 14.0131 79.4881 13.7375 79.7837 13.2659H79.8552V13.9117H80.7254V10.7718C80.7254 9.80108 80.0777 9.22754 78.9294 9.22754C77.8902 9.22754 77.1501 9.73382 77.0577 10.5231H77.9329C78.0332 10.1983 78.383 10.0124 78.8876 10.0124C79.5056 10.0124 79.8254 10.2864 79.8254 10.7718V11.1684L78.5846 11.2402ZM79.8295 11.8335V12.2177C79.8097 12.5106 79.6722 12.7829 79.4487 12.9722C79.2251 13.1616 78.9345 13.2519 78.6433 13.2223C78.1516 13.2223 77.7939 12.9816 77.7939 12.568C77.7939 12.1629 78.08 11.9477 78.7108 11.9053L79.8295 11.8335Z" fill="white"/>
<path fill-rule="evenodd" clip-rule="evenodd" d="M83.8136 9.2404C82.6562 9.2404 81.9121 10.1603 81.9121 11.6124C81.9121 13.0679 82.6483 13.9879 83.8136 13.9878C84.4044 14.0097 84.9584 13.7008 85.252 13.186H85.3236V13.912H86.1899V7.52271H85.2859V10.0466H85.2183C84.9452 9.52753 84.3979 9.21338 83.8136 9.2404ZM84.0681 13.1728C83.3023 13.1728 82.8443 12.5863 82.8443 11.6117C82.8443 10.6449 83.3071 10.0544 84.0681 10.0544C84.8251 10.0544 85.301 10.6578 85.301 11.6156C85.301 12.5779 84.8301 13.1728 84.0681 13.1728Z" fill="white"/>
<path fill-rule="evenodd" clip-rule="evenodd" d="M90.9461 9.55842C90.2453 9.99472 89.8515 10.7919 89.9302 11.6156C89.8501 12.4401 90.2434 13.2389 90.9449 13.6761C91.6464 14.1133 92.5343 14.1133 93.2358 13.6761C93.9372 13.2389 94.3306 12.4401 94.2506 11.6156C94.3291 10.7919 93.9354 9.99472 93.2346 9.55842C92.5337 9.12213 91.647 9.12213 90.9461 9.55842ZM92.0941 10.0343C92.8769 10.0343 93.3229 10.6168 93.3229 11.6129C93.3229 12.613 92.8769 13.195 92.0941 13.195C91.3083 13.195 90.8662 12.617 90.8662 11.6129C90.8662 10.6168 91.3083 10.0343 92.0941 10.0343Z" fill="white"/>
<path d="M95.4668 9.31494H96.337V10.045H96.4046C96.6395 9.50747 97.1884 9.17868 97.7716 9.22623C98.223 9.19218 98.6655 9.36594 98.9739 9.69844C99.2824 10.0309 99.4233 10.4861 99.3571 10.9354V13.9103H98.4531V11.1632C98.4531 10.4247 98.1331 10.0574 97.4645 10.0574C97.1584 10.0431 96.8612 10.1637 96.651 10.3875C96.4407 10.6114 96.3383 10.9161 96.3708 11.222V13.9104H95.4668V9.31494Z" fill="white"/>
<path d="M104.462 8.17017V9.33521H105.455V10.0991H104.462V12.4621C104.462 12.9435 104.66 13.1542 105.11 13.1542C105.225 13.1538 105.34 13.1469 105.455 13.1334V13.8888C105.292 13.9179 105.128 13.9335 104.963 13.9352C103.958 13.9352 103.557 13.5803 103.557 12.6943V10.0991H102.83V9.33517H103.557V8.17017H104.462Z" fill="white"/>
<path d="M106.688 7.51929H107.584V10.0517H107.655C107.901 9.50951 108.46 9.18031 109.052 9.22849C109.501 9.20399 109.937 9.38157 110.242 9.71287C110.547 10.0442 110.689 10.4947 110.629 10.9416V13.9087H109.724V11.1654C109.724 10.4314 109.384 10.0597 108.745 10.0597C108.43 10.0338 108.121 10.1485 107.898 10.3731C107.676 10.5977 107.564 10.9094 107.592 11.2247V13.9087H106.688V7.51929Z" fill="white"/>
<path fill-rule="evenodd" clip-rule="evenodd" d="M113.917 14.0041C114.812 14.1015 115.648 13.5415 115.902 12.6745H115.031C114.814 13.0648 114.384 13.2849 113.942 13.2317C113.601 13.2355 113.274 13.0948 113.041 12.8441C112.809 12.5935 112.693 12.2563 112.722 11.9151V11.8644H115.956V11.5479C115.956 10.1049 115.187 9.23128 113.913 9.23128C113.3 9.22604 112.716 9.48762 112.311 9.94825C111.906 10.4089 111.72 11.0233 111.801 11.6321C111.717 12.2393 111.904 12.8528 112.312 13.3095C112.719 13.7663 113.306 14.0203 113.917 14.0041ZM115.036 11.1923H112.722C112.718 10.8754 112.841 10.5703 113.065 10.3462C113.288 10.122 113.592 9.99786 113.908 10.0018C114.22 9.99467 114.52 10.1199 114.735 10.3466C114.949 10.5733 115.059 10.8805 115.036 11.1923Z" fill="white"/>
</svg>
