<svg width="18" height="19" viewBox="0 0 18 19" fill="none" xmlns="http://www.w3.org/2000/svg">
<path d="M14.4445 13.2635H5.16009C4.78151 13.2616 4.4161 13.1243 4.12997 12.8764C3.84384 12.6285 3.65587 12.2863 3.60006 11.9119L2.05267 1.6675C2.03744 1.55586 1.98241 1.45349 1.89769 1.37921C1.81297 1.30494 1.70427 1.26377 1.59161 1.26328H0.63159C0.464082 1.26328 0.303435 1.19674 0.184988 1.07829C0.0665423 0.959844 0 0.799197 0 0.631688C0 0.46418 0.0665423 0.303533 0.184988 0.185087C0.303435 0.0666405 0.464082 9.81649e-05 0.63159 9.81649e-05H1.57898C1.99902 -0.00436579 2.40645 0.14355 2.7258 0.416448C3.04515 0.689345 3.25477 1.06873 3.31585 1.48434L3.59375 3.31595H16.3645C16.7665 3.30697 17.1577 3.44637 17.4635 3.70753C17.6888 3.90489 17.8531 4.16249 17.937 4.45005C18.0209 4.7376 18.021 5.04314 17.9372 5.33072L15.9477 12.1266C15.8526 12.4525 15.6551 12.7391 15.3843 12.9439C15.1135 13.1487 14.7839 13.2608 14.4445 13.2635ZM3.75796 4.57913L4.85061 11.7224C4.85992 11.7994 4.89726 11.8703 4.9555 11.9216C5.01375 11.9729 5.08882 12.0009 5.16641 12.0003H14.4508C14.5191 12.0003 14.5856 11.9782 14.6403 11.9372C14.6949 11.8962 14.7348 11.8385 14.7539 11.7729L16.7245 4.98335C16.7382 4.93628 16.7408 4.88667 16.732 4.83843C16.7233 4.7902 16.7034 4.74467 16.674 4.70545C16.6446 4.66622 16.6064 4.63439 16.5626 4.61247C16.5187 4.59054 16.4704 4.57913 16.4213 4.57913H3.75796ZM6.7896 18.3162C6.38362 18.3162 5.98675 18.1958 5.64919 17.9703C5.31163 17.7447 5.04854 17.4241 4.89318 17.0491C4.73782 16.674 4.69717 16.2613 4.77637 15.8631C4.85557 15.4649 5.05107 15.0992 5.33814 14.8121C5.62521 14.525 5.99096 14.3295 6.38914 14.2503C6.78732 14.1711 7.20004 14.2118 7.57512 14.3671C7.95019 14.5225 8.27078 14.7856 8.49633 15.1231C8.72188 15.4607 8.84226 15.8576 8.84226 16.2635C8.84226 16.5331 8.78917 16.8 8.68601 17.0491C8.58286 17.2981 8.43166 17.5244 8.24105 17.715C8.05044 17.9056 7.82416 18.0568 7.57512 18.16C7.32608 18.2631 7.05916 18.3162 6.7896 18.3162ZM6.7896 15.4741C6.63345 15.4741 6.48081 15.5204 6.35098 15.6071C6.22115 15.6939 6.11996 15.8172 6.0602 15.9614C6.00045 16.1057 5.98481 16.2644 6.01528 16.4176C6.04574 16.5707 6.12093 16.7114 6.23134 16.8218C6.34175 16.9322 6.48243 17.0074 6.63557 17.0379C6.78872 17.0683 6.94746 17.0527 7.09172 16.9929C7.23598 16.9332 7.35928 16.832 7.44603 16.7022C7.53278 16.5723 7.57908 16.4197 7.57908 16.2635C7.57908 16.0542 7.4959 15.8534 7.34785 15.7053C7.19979 15.5572 6.99898 15.4741 6.7896 15.4741ZM13.0613 18.3162C12.6553 18.3162 12.2584 18.1958 11.9209 17.9703C11.5833 17.7447 11.3202 17.4241 11.1649 17.0491C11.0095 16.674 10.9689 16.2613 11.0481 15.8631C11.1273 15.4649 11.3228 15.0992 11.6098 14.8121C11.8969 14.525 12.2627 14.3295 12.6608 14.2503C13.059 14.1711 13.4717 14.2118 13.8468 14.3671C14.2219 14.5225 14.5425 14.7856 14.768 15.1231C14.9936 15.4607 15.114 15.8576 15.114 16.2635C15.114 16.8079 14.8977 17.3301 14.5127 17.715C14.1278 18.1 13.6057 18.3162 13.0613 18.3162ZM13.0613 15.4741C12.9051 15.4741 12.7525 15.5204 12.6227 15.6071C12.4928 15.6939 12.3916 15.8172 12.3319 15.9614C12.2721 16.1057 12.2565 16.2644 12.287 16.4176C12.3174 16.5707 12.3926 16.7114 12.503 16.8218C12.6134 16.9322 12.7541 17.0074 12.9073 17.0379C13.0604 17.0683 13.2191 17.0527 13.3634 16.9929C13.5077 16.9332 13.631 16.832 13.7177 16.7022C13.8045 16.5723 13.8508 16.4197 13.8508 16.2635C13.8508 16.0542 13.7676 15.8534 13.6195 15.7053C13.4715 15.5572 13.2707 15.4741 13.0613 15.4741Z" fill="#CDCFD0"/>
</svg>
