<svg width="282" height="282" viewBox="0 0 282 282" fill="none" xmlns="http://www.w3.org/2000/svg">
<rect width="282" height="282" rx="20" fill="url(#paint0_linear_1_2232)"/>
<path d="M27.528 247.436L22.92 260H19.86L15.252 247.436H17.952L21.408 257.426L24.846 247.436H27.528ZM30.4069 248.84C29.9629 248.84 29.5909 248.702 29.2909 248.426C29.0029 248.138 28.8589 247.784 28.8589 247.364C28.8589 246.944 29.0029 246.596 29.2909 246.32C29.5909 246.032 29.9629 245.888 30.4069 245.888C30.8509 245.888 31.2169 246.032 31.5049 246.32C31.8049 246.596 31.9549 246.944 31.9549 247.364C31.9549 247.784 31.8049 248.138 31.5049 248.426C31.2169 248.702 30.8509 248.84 30.4069 248.84ZM31.6489 250.028V260H29.1289V250.028H31.6489ZM43.4986 254.798C43.4986 255.158 43.4746 255.482 43.4266 255.77H36.1366C36.1966 256.49 36.4486 257.054 36.8926 257.462C37.3366 257.87 37.8826 258.074 38.5306 258.074C39.4666 258.074 40.1326 257.672 40.5286 256.868H43.2466C42.9586 257.828 42.4066 258.62 41.5906 259.244C40.7746 259.856 39.7726 260.162 38.5846 260.162C37.6246 260.162 36.7606 259.952 35.9926 259.532C35.2366 259.1 34.6426 258.494 34.2106 257.714C33.7906 256.934 33.5806 256.034 33.5806 255.014C33.5806 253.982 33.7906 253.076 34.2106 252.296C34.6306 251.516 35.2186 250.916 35.9746 250.496C36.7306 250.076 37.6006 249.866 38.5846 249.866C39.5326 249.866 40.3786 250.07 41.1226 250.478C41.8786 250.886 42.4606 251.468 42.8686 252.224C43.2886 252.968 43.4986 253.826 43.4986 254.798ZM40.8886 254.078C40.8766 253.43 40.6426 252.914 40.1866 252.53C39.7306 252.134 39.1726 251.936 38.5126 251.936C37.8886 251.936 37.3606 252.128 36.9286 252.512C36.5086 252.884 36.2506 253.406 36.1546 254.078H40.8886ZM59.252 250.028L56.336 260H53.618L51.8 253.034L49.982 260H47.246L44.312 250.028H46.868L48.632 257.624L50.54 250.028H53.204L55.076 257.606L56.84 250.028H59.252ZM72.7886 257.606H67.7846L66.9566 260H64.3106L68.8286 247.418H71.7626L76.2806 260H73.6166L72.7886 257.606ZM72.1046 255.59L70.2866 250.334L68.4686 255.59H72.1046ZM80.5793 246.68V260H78.0593V246.68H80.5793ZM85.6791 246.68V260H83.1591V246.68H85.6791Z" fill="white"/>
<path d="M98.4583 262.333C98.1528 262.028 98 261.639 98 261.167C98 260.695 98.1528 260.306 98.4583 260L104.958 253.5L98.4583 247C98.1528 246.695 98 246.306 98 245.833C98 245.361 98.1528 244.972 98.4583 244.667C98.7639 244.361 99.1528 244.208 99.625 244.208C100.097 244.208 100.486 244.361 100.792 244.667L108.458 252.333C108.625 252.5 108.743 252.681 108.813 252.875C108.883 253.07 108.918 253.278 108.917 253.5C108.917 253.722 108.882 253.931 108.812 254.125C108.742 254.32 108.624 254.5 108.458 254.667L100.792 262.333C100.486 262.639 100.097 262.792 99.625 262.792C99.1528 262.792 98.7639 262.639 98.4583 262.333Z" fill="white"/>
<path d="M178.5 126C190.926 126 201 115.926 201 103.5C201 91.0736 190.926 81 178.5 81C166.074 81 156 91.0736 156 103.5C156 115.926 166.074 126 178.5 126Z" stroke="white" stroke-width="3" stroke-linecap="round" stroke-linejoin="round" style="mix-blend-mode:overlay"/>
<path d="M103.5 201C115.926 201 126 190.926 126 178.5C126 166.074 115.926 156 103.5 156C91.0736 156 81 166.074 81 178.5C81 190.926 91.0736 201 103.5 201Z" stroke="white" stroke-width="3" stroke-linecap="round" stroke-linejoin="round" style="mix-blend-mode:overlay"/>
<path d="M152 152H197V189.5C197 191.489 196.21 193.397 194.803 194.803C193.397 196.21 191.489 197 189.5 197H159.5C157.511 197 155.603 196.21 154.197 194.803C152.79 193.397 152 191.489 152 189.5V152ZM85 85H130V122.5C130 124.489 129.21 126.397 127.803 127.803C126.397 129.21 124.489 130 122.5 130H92.5C90.5109 130 88.6032 129.21 87.1967 127.803C85.7902 126.397 85 124.489 85 122.5V85Z" stroke="white" stroke-width="3" stroke-linecap="round" stroke-linejoin="round" style="mix-blend-mode:overlay"/>
<defs>
<linearGradient id="paint0_linear_1_2232" x1="141" y1="0" x2="141" y2="282" gradientUnits="userSpaceOnUse">
<stop stop-color="#FE9000"/>
<stop offset="1" stop-color="#FF3500"/>
</linearGradient>
</defs>
</svg>
