<svg width="124" height="124" viewBox="0 0 124 124" fill="none" xmlns="http://www.w3.org/2000/svg">
<path d="M99.5 47C111.926 47 122 36.9264 122 24.5C122 12.0736 111.926 2 99.5 2C87.0736 2 77 12.0736 77 24.5C77 36.9264 87.0736 47 99.5 47Z" stroke="white" stroke-width="3" stroke-linecap="round" stroke-linejoin="round" style="mix-blend-mode:overlay"/>
<path d="M24.5 122C36.9264 122 47 111.926 47 99.5C47 87.0736 36.9264 77 24.5 77C12.0736 77 2 87.0736 2 99.5C2 111.926 12.0736 122 24.5 122Z" stroke="white" stroke-width="3" stroke-linecap="round" stroke-linejoin="round" style="mix-blend-mode:overlay"/>
<path d="M73 73H118V110.5C118 112.489 117.21 114.397 115.803 115.803C114.397 117.21 112.489 118 110.5 118H80.5C78.5109 118 76.6032 117.21 75.1967 115.803C73.7902 114.397 73 112.489 73 110.5V73ZM6 6H51V43.5C51 45.4891 50.2098 47.3968 48.8033 48.8033C47.3968 50.2098 45.4891 51 43.5 51H13.5C11.5109 51 9.60322 50.2098 8.1967 48.8033C6.79018 47.3968 6 45.4891 6 43.5V6Z" stroke="white" stroke-width="3" stroke-linecap="round" stroke-linejoin="round" style="mix-blend-mode:overlay"/>
</svg>
