<svg width="11" height="19" viewBox="0 0 11 19" fill="none" xmlns="http://www.w3.org/2000/svg">
<path d="M0.458333 18.3335C0.152777 18.0279 0 17.6391 0 17.1668C0 16.6946 0.152777 16.3057 0.458333 16.0002L6.95833 9.50016L0.458333 3.00016C0.152777 2.69461 0 2.30572 0 1.8335C0 1.36127 0.152777 0.972384 0.458333 0.666829C0.763888 0.361273 1.15278 0.208496 1.625 0.208496C2.09722 0.208496 2.48611 0.361273 2.79167 0.666829L10.4583 8.3335C10.625 8.50016 10.7433 8.68072 10.8133 8.87516C10.8833 9.06961 10.9178 9.27794 10.9167 9.50016C10.9167 9.72238 10.8817 9.93072 10.8117 10.1252C10.7417 10.3196 10.6239 10.5002 10.4583 10.6668L2.79167 18.3335C2.48611 18.639 2.09722 18.7918 1.625 18.7918C1.15278 18.7918 0.763888 18.639 0.458333 18.3335Z" fill="white"/>
</svg>
