<svg width="31" height="30" viewBox="0 0 31 30" fill="none" xmlns="http://www.w3.org/2000/svg">
<path fill-rule="evenodd" clip-rule="evenodd" d="M14.1356 5.81867C14.5746 5.60889 15.055 5.5 15.5416 5.5C16.0282 5.5 16.5086 5.60889 16.9476 5.81867C17.3346 6.00367 17.6876 6.30567 18.1786 6.72367L18.2566 6.78967C18.4946 6.99267 18.5696 7.05467 18.6456 7.10567C18.8386 7.23567 19.0556 7.32467 19.2826 7.36967C19.3726 7.38767 19.4696 7.39667 19.7816 7.42067L19.8826 7.42867C20.5246 7.47967 20.9886 7.51667 21.3926 7.65867C21.8515 7.8213 22.2683 8.08436 22.6126 8.42864C22.9569 8.77292 23.22 9.18974 23.3826 9.64867C23.5246 10.0527 23.5606 10.5167 23.6126 11.1587L23.6206 11.2597C23.6446 11.5717 23.6536 11.6697 23.6716 11.7587C23.7166 11.9867 23.8066 12.2037 23.9356 12.3967C23.9866 12.4717 24.0486 12.5467 24.2516 12.7847L24.3176 12.8627C24.7366 13.3527 25.0376 13.7067 25.2226 14.0927C25.6476 14.9827 25.6476 16.0167 25.2226 16.9057C25.0386 17.2927 24.7366 17.6457 24.3176 18.1367L24.2516 18.2147C24.1395 18.3387 24.034 18.4685 23.9356 18.6037C23.8056 18.7967 23.7166 19.0137 23.6716 19.2407C23.6536 19.3307 23.6456 19.4277 23.6206 19.7397L23.6116 19.8407C23.5616 20.4827 23.5246 20.9467 23.3816 21.3507C23.2197 21.8099 22.957 22.2269 22.6128 22.5713C22.2686 22.9157 21.8517 23.1786 21.3926 23.3407C20.9886 23.4827 20.5246 23.5187 19.8826 23.5707L19.7816 23.5787C19.6145 23.5869 19.4479 23.6039 19.2826 23.6297C19.0549 23.6747 18.8384 23.7644 18.6456 23.8937C18.5102 23.9922 18.38 24.0977 18.2556 24.2097L18.1786 24.2757C17.6886 24.6947 17.3346 24.9957 16.9486 25.1807C16.5094 25.3906 16.0289 25.4996 15.5421 25.4996C15.0553 25.4996 14.5748 25.3906 14.1356 25.1807C13.7486 24.9967 13.3956 24.6947 12.9046 24.2757C12.8786 24.2537 12.8526 24.2317 12.8266 24.2097C12.7029 24.0976 12.5734 23.9922 12.4386 23.8937C12.2456 23.7641 12.0287 23.6743 11.8006 23.6297C11.6353 23.6039 11.4687 23.5869 11.3016 23.5787L11.2006 23.5697C10.5586 23.5197 10.0946 23.4827 9.6906 23.3397C9.23146 23.1777 8.81441 22.915 8.47005 22.5708C8.1257 22.2267 7.86278 21.8097 7.7006 21.3507C7.5586 20.9467 7.5216 20.4827 7.4706 19.8407L7.4626 19.7397C7.45438 19.5726 7.43736 19.406 7.4116 19.2407C7.36656 19.013 7.27683 18.7965 7.1476 18.6037C7.04923 18.4682 6.94375 18.338 6.8316 18.2137L6.7656 18.1367C6.3476 17.6467 6.0456 17.2927 5.8606 16.9067C5.65066 16.4675 5.54169 15.9869 5.54169 15.5002C5.54169 15.0134 5.65066 14.5328 5.8606 14.0937C6.0456 13.7067 6.3476 13.3537 6.7656 12.8627L6.8316 12.7847C6.94366 12.661 7.04914 12.5315 7.1476 12.3967C7.2776 12.2037 7.3666 11.9867 7.4116 11.7587C7.4296 11.6687 7.4386 11.5717 7.4626 11.2597L7.4706 11.1587C7.5216 10.5167 7.5586 10.0527 7.7006 9.64867C7.86266 9.18943 8.12552 8.77231 8.46988 8.42795C8.81424 8.08359 9.23135 7.82073 9.6906 7.65867C10.0946 7.51667 10.5586 7.47967 11.2006 7.42867L11.3016 7.42067C11.4688 7.41303 11.6354 7.396 11.8006 7.36967C12.0286 7.32467 12.2456 7.23467 12.4386 7.10567C12.5136 7.05467 12.5886 6.99267 12.8266 6.78967L12.9046 6.72367C13.3946 6.30567 13.7496 6.00367 14.1356 5.81867ZM16.2986 7.17667C16.0622 7.06374 15.8036 7.00513 15.5416 7.00513C15.2796 7.00513 15.021 7.06374 14.7846 7.17667C14.5996 7.26467 14.4046 7.42367 13.8036 7.93467L13.7736 7.95967C13.5766 8.12767 13.4336 8.25067 13.2766 8.35567C12.9176 8.59567 12.5156 8.76267 12.0916 8.84567C11.9066 8.88267 11.7186 8.89767 11.4596 8.91867L11.4216 8.92167C10.6346 8.98467 10.3856 9.01067 10.1916 9.07867C9.6916 9.25567 9.2976 9.64867 9.1216 10.1497C9.0516 10.3437 9.0266 10.5927 8.9636 11.3797L8.9606 11.4177C8.9406 11.6767 8.9246 11.8647 8.8886 12.0497C8.8046 12.4737 8.6386 12.8757 8.3986 13.2347C8.2926 13.3917 8.1696 13.5347 8.0016 13.7327L7.9766 13.7617C7.4656 14.3617 7.3066 14.5577 7.2186 14.7417C7.10551 14.9782 7.04681 15.237 7.04681 15.4992C7.04681 15.7613 7.10551 16.0202 7.2186 16.2567C7.3066 16.4417 7.4656 16.6367 7.9766 17.2377L8.0016 17.2677C8.1696 17.4647 8.2926 17.6077 8.3976 17.7647C8.6376 18.1237 8.8046 18.5257 8.8876 18.9487C8.9246 19.1347 8.9396 19.3227 8.9606 19.5817L8.9636 19.6197C9.0266 20.4067 9.0526 20.6557 9.1206 20.8497C9.2976 21.3497 9.6906 21.7437 10.1916 21.9197C10.3856 21.9897 10.6346 22.0147 11.4216 22.0777L11.4596 22.0807C11.7186 22.1007 11.9066 22.1167 12.0916 22.1527C12.5156 22.2367 12.9176 22.4027 13.2766 22.6427C13.4336 22.7487 13.5766 22.8717 13.7746 23.0397L13.8036 23.0647C14.4036 23.5757 14.5996 23.7347 14.7836 23.8227C15.0201 23.9358 15.2789 23.9945 15.5411 23.9945C15.8033 23.9945 16.0621 23.9358 16.2986 23.8227C16.4836 23.7347 16.6786 23.5757 17.2796 23.0647L17.3096 23.0397C17.5066 22.8717 17.6496 22.7487 17.8066 22.6437C18.165 22.4036 18.5674 22.2371 18.9906 22.1537C19.2 22.1172 19.4114 22.0928 19.6236 22.0807L19.6616 22.0777C20.4486 22.0147 20.6976 21.9887 20.8916 21.9207C21.3916 21.7437 21.7856 21.3507 21.9616 20.8497C22.0316 20.6557 22.0566 20.4057 22.1196 19.6197L22.1226 19.5817C22.1344 19.3695 22.1585 19.1581 22.1946 18.9487C22.2786 18.5257 22.4446 18.1237 22.6846 17.7647C22.7906 17.6077 22.9136 17.4647 23.0816 17.2667L23.1066 17.2377C23.6176 16.6377 23.7766 16.4417 23.8646 16.2577C23.9777 16.0212 24.0364 15.7623 24.0364 15.5002C24.0364 15.238 23.9777 14.9792 23.8646 14.7427C23.7766 14.5577 23.6176 14.3627 23.1066 13.7617L23.0816 13.7317C22.9136 13.5347 22.7906 13.3917 22.6856 13.2347C22.4455 12.876 22.2789 12.4732 22.1956 12.0497C22.1592 11.8406 22.1348 11.6296 22.1226 11.4177L22.1196 11.3797C22.0566 10.5927 22.0306 10.3437 21.9626 10.1497C21.7856 9.64967 21.3926 9.25567 20.8916 9.07967C20.6976 9.00967 20.4476 8.98467 19.6616 8.92167L19.6236 8.91867C19.4114 8.90677 19.2001 8.88274 18.9906 8.84667C18.5674 8.76323 18.165 8.59668 17.8066 8.35667C17.6496 8.25067 17.5066 8.12767 17.3086 7.95967L17.2796 7.93467C16.6796 7.42367 16.4836 7.26467 16.2996 7.17667H16.2986Z" fill="#282828"/>
<path fill-rule="evenodd" clip-rule="evenodd" d="M19.0846 11.9567C19.1545 12.0266 19.21 12.1096 19.2479 12.201C19.2857 12.2924 19.3052 12.3903 19.3052 12.4892C19.3052 12.5881 19.2857 12.686 19.2479 12.7774C19.21 12.8687 19.1545 12.9518 19.0846 13.0217L13.0636 19.0417C12.9212 19.1766 12.7318 19.2506 12.5357 19.248C12.3396 19.2454 12.1523 19.1664 12.0135 19.0277C11.8748 18.8891 11.7956 18.7019 11.7928 18.5057C11.79 18.3096 11.8639 18.1202 11.9986 17.9777L18.0196 11.9577C18.0895 11.8878 18.1725 11.8323 18.2639 11.7944C18.3553 11.7566 18.4532 11.7371 18.5521 11.7371C18.651 11.7371 18.7489 11.7566 18.8403 11.7944C18.9317 11.8323 19.0147 11.8878 19.0846 11.9577V11.9567Z" fill="#282828"/>
<path d="M19.0536 18.0087C19.0578 18.1431 19.035 18.2771 18.9865 18.4025C18.938 18.528 18.8648 18.6424 18.7711 18.739C18.6775 18.8356 18.5655 18.9124 18.4416 18.9649C18.3178 19.0173 18.1846 19.0444 18.0501 19.0444C17.9156 19.0444 17.7824 19.0173 17.6586 18.9649C17.5347 18.9124 17.4227 18.8356 17.329 18.739C17.2354 18.6424 17.1622 18.528 17.1137 18.4025C17.0652 18.2771 17.0424 18.1431 17.0466 18.0087C17.0548 17.748 17.1642 17.5008 17.3515 17.3193C17.5387 17.1378 17.7893 17.0364 18.0501 17.0364C18.3109 17.0364 18.5614 17.1378 18.7487 17.3193C18.936 17.5008 19.0454 17.748 19.0536 18.0087ZM14.0366 12.9907C14.0408 13.1251 14.018 13.2591 13.9695 13.3845C13.921 13.51 13.8478 13.6244 13.7541 13.721C13.6605 13.8176 13.5485 13.8944 13.4246 13.9469C13.3008 13.9993 13.1676 14.0264 13.0331 14.0264C12.8986 14.0264 12.7654 13.9993 12.6416 13.9469C12.5177 13.8944 12.4057 13.8176 12.312 13.721C12.2184 13.6244 12.1452 13.51 12.0967 13.3845C12.0482 13.2591 12.0254 13.1251 12.0296 12.9907C12.0378 12.73 12.1472 12.4828 12.3345 12.3013C12.5217 12.1198 12.7723 12.0184 13.0331 12.0184C13.2939 12.0184 13.5444 12.1198 13.7317 12.3013C13.919 12.4828 14.0284 12.73 14.0366 12.9907Z" fill="#282828"/>
</svg>
