<svg width="11" height="6" viewBox="0 0 11 6" fill="none" xmlns="http://www.w3.org/2000/svg">
<path d="M6.12015 5.80457C6.12615 5.79737 6.12855 5.78777 6.13455 5.78057L10.3239 1.15203C10.5579 0.891626 10.5579 0.469213 10.3239 0.208806C10.3215 0.206406 10.3191 0.205206 10.3167 0.204006C10.2646 0.140951 10.1994 0.0900248 10.1256 0.0547879C10.0518 0.019551 9.97122 0.000852857 9.88946 0H1.50962C1.42635 0.0013455 1.34439 0.0209583 1.26953 0.0574533C1.19468 0.0939483 1.12875 0.146435 1.0764 0.211206L1.074 0.208806C0.960756 0.339832 0.898438 0.507235 0.898438 0.680419C0.898438 0.853604 0.960756 1.02101 1.074 1.15203L5.27292 5.80457C5.3252 5.86584 5.39014 5.91505 5.46327 5.94879C5.53641 5.98253 5.61599 6 5.69654 6C5.77708 6 5.85666 5.98253 5.9298 5.94879C6.00293 5.91505 6.06787 5.86584 6.12015 5.80457Z" fill="#4A4A4A"/>
</svg>
