<svg width="16" height="12" viewBox="0 0 16 12" fill="none" xmlns="http://www.w3.org/2000/svg">
<path d="M15.8984 11.6304H0.898438V6.44776L5.64687 4.1194L7.81367 0H15.8984V11.6304Z" fill="#F0F5F9"/>
<path d="M15.8988 0.902629H7.0957L7.51289 0.30135L7.81406 0H15.8988V0.902629Z" fill="#D11536"/>
<path d="M15.8988 1.84961H7.0957V2.75224H15.8988V1.84961Z" fill="#D11536"/>
<path d="M15.8988 3.69824H7.0957V4.60087H15.8988V3.69824Z" fill="#D11536"/>
<path d="M15.8984 5.5498H0.898438V6.45243H15.8984V5.5498Z" fill="#D11536"/>
<path d="M15.8984 7.39844H0.898438V8.30107H15.8984V7.39844Z" fill="#D11536"/>
<path d="M15.8984 9.24805H0.898438V10.1507H15.8984V9.24805Z" fill="#D11536"/>
<path d="M15.8984 11.0977H0.898438V12.0003H15.8984V11.0977Z" fill="#D11536"/>
<path d="M7.81367 0H0.898438V6.44776H7.81367V0Z" fill="#002868"/>
<path d="M1.61562 0.530273L1.72227 0.791823L1.95898 0.833045L1.78789 1.03631L1.82773 1.32203L1.61562 1.18699L1.40352 1.32203L1.44453 1.03631L1.27344 0.833045L1.51016 0.791823L1.61562 0.530273Z" fill="#F0F5F9"/>
<path d="M2.98594 0.530273L3.09258 0.791823L3.3293 0.833045L3.1582 1.03631L3.19805 1.32203L2.98594 1.18699L2.77383 1.32203L2.81484 1.03631L2.64258 0.833045L2.88047 0.791823L2.98594 0.530273Z" fill="#F0F5F9"/>
<path d="M4.35508 0.530273L4.46172 0.791823L4.69844 0.833045L4.52734 1.03631L4.56719 1.32203L4.35508 1.18699L4.14297 1.32203L4.18398 1.03631L4.01172 0.833045L4.24961 0.791823L4.35508 0.530273Z" fill="#F0F5F9"/>
<path d="M5.725 0.530273L5.83164 0.791823L6.06836 0.833045L5.89727 1.03631L5.93711 1.32203L5.725 1.18699L5.51289 1.32203L5.55391 1.03631L5.38281 0.833045L5.61953 0.791823L5.725 0.530273Z" fill="#F0F5F9"/>
<path d="M7.09531 0.530273L7.20195 0.791823L7.43867 0.833045L7.26758 1.03631L7.30742 1.32203L7.09531 1.18699L6.8832 1.32203L6.92422 1.03631L6.75195 0.833045L6.98984 0.791823L7.09531 0.530273Z" fill="#F0F5F9"/>
<path d="M5.08555 1.61621L5.19102 1.87634L5.42891 1.91898L5.25664 2.12225L5.29766 2.40797L5.08555 2.27293L4.87344 2.40797L4.91328 2.12225L4.74219 1.91898L4.97891 1.87634L5.08555 1.61621Z" fill="#F0F5F9"/>
<path d="M3.67148 1.61621L3.77695 1.87634L4.01484 1.91898L3.84258 2.12225L3.88359 2.40797L3.67148 2.27293L3.45938 2.40797L3.50039 2.12225L3.32812 1.91898L3.56484 1.87634L3.67148 1.61621Z" fill="#F0F5F9"/>
<path d="M6.49648 1.61621L6.60313 1.87634L6.83984 1.91898L6.66875 2.12225L6.70977 2.40797L6.49648 2.27293L6.28555 2.40797L6.32539 2.12225L6.1543 1.91898L6.39102 1.87634L6.49648 1.61621Z" fill="#F0F5F9"/>
<path d="M7.09531 2.90234L7.20195 3.16389L7.43867 3.20512L7.26758 3.40839L7.30742 3.6941L7.09531 3.55906L6.8832 3.6941L6.92422 3.40839L6.75195 3.20512L6.98984 3.16389L7.09531 2.90234Z" fill="#F0F5F9"/>
<path d="M6.49648 3.98828L6.60313 4.24983L6.83984 4.29105L6.66875 4.49432L6.70977 4.78004L6.49648 4.645L6.28555 4.78004L6.32539 4.49432L6.1543 4.29105L6.39102 4.24983L6.49648 3.98828Z" fill="#F0F5F9"/>
<path d="M7.09531 5.27539L7.20195 5.53694L7.43867 5.57816L7.26758 5.78143L7.30742 6.06715L7.09531 5.93211L6.8832 6.06715L6.92422 5.78143L6.75195 5.57816L6.98984 5.53694L7.09531 5.27539Z" fill="#F0F5F9"/>
<path d="M2.25742 1.61621L2.36406 1.87634L2.60078 1.91898L2.42852 2.12225L2.46953 2.40797L2.25742 2.27293L2.04531 2.40797L2.08633 2.12225L1.91406 1.91898L2.15195 1.87634L2.25742 1.61621Z" fill="#F0F5F9"/>
<path d="M1.61562 2.87695L1.72227 3.1385L1.95898 3.17973L1.78789 3.38299L1.82773 3.66871L1.61562 3.53367L1.40352 3.66871L1.44453 3.38299L1.27344 3.17973L1.51016 3.1385L1.61562 2.87695Z" fill="#F0F5F9"/>
<path d="M2.98594 2.87695L3.09258 3.1385L3.3293 3.17973L3.1582 3.38299L3.19805 3.66871L2.98594 3.53367L2.77383 3.66871L2.81484 3.38299L2.64258 3.17973L2.88047 3.1385L2.98594 2.87695Z" fill="#F0F5F9"/>
<path d="M4.35508 2.87695L4.46172 3.1385L4.69844 3.17973L4.52734 3.38299L4.56719 3.66871L4.35508 3.53367L4.14297 3.66871L4.18398 3.38299L4.01172 3.17973L4.24961 3.1385L4.35508 2.87695Z" fill="#F0F5F9"/>
<path d="M5.725 2.87695L5.83164 3.1385L6.06836 3.17973L5.89727 3.38299L5.93711 3.66871L5.725 3.53367L5.51289 3.66871L5.55391 3.38299L5.38281 3.17973L5.61953 3.1385L5.725 2.87695Z" fill="#F0F5F9"/>
<path d="M5.08555 3.96289L5.19102 4.22444L5.42891 4.26566L5.25664 4.46893L5.29766 4.75465L5.08555 4.61961L4.87344 4.75465L4.91328 4.46893L4.74219 4.26566L4.97891 4.22444L5.08555 3.96289Z" fill="#F0F5F9"/>
<path d="M3.67148 3.96289L3.77695 4.22444L4.01484 4.26566L3.84258 4.46893L3.88359 4.75465L3.67148 4.61961L3.45938 4.75465L3.50039 4.46893L3.32812 4.26566L3.56484 4.22444L3.67148 3.96289Z" fill="#F0F5F9"/>
<path d="M2.25742 3.96289L2.36406 4.22444L2.60078 4.26566L2.42852 4.46893L2.46953 4.75465L2.25742 4.61961L2.04531 4.75465L2.08633 4.46893L1.91406 4.26566L2.15195 4.22444L2.25742 3.96289Z" fill="#F0F5F9"/>
<path d="M1.61562 5.22559L1.72227 5.48571L1.95898 5.52694L1.78789 5.73021L1.82773 6.01734L1.61562 5.8823L1.40352 6.01734L1.44453 5.73021L1.27344 5.52694L1.51016 5.48571L1.61562 5.22559Z" fill="#F0F5F9"/>
<path d="M2.98594 5.22559L3.09258 5.48571L3.3293 5.52694L3.1582 5.73021L3.19805 6.01734L2.98594 5.8823L2.77383 6.01734L2.81484 5.73021L2.64258 5.52694L2.88047 5.48571L2.98594 5.22559Z" fill="#F0F5F9"/>
<path d="M4.35508 5.22559L4.46172 5.48571L4.69844 5.52694L4.52734 5.73021L4.56719 6.01734L4.35508 5.8823L4.14297 6.01734L4.18398 5.73021L4.01172 5.52694L4.24961 5.48571L4.35508 5.22559Z" fill="#F0F5F9"/>
<path d="M5.725 5.22559L5.83164 5.48571L6.06836 5.52694L5.89727 5.73021L5.93711 6.01734L5.725 5.8823L5.51289 6.01734L5.55391 5.73021L5.38281 5.52694L5.61953 5.48571L5.725 5.22559Z" fill="#F0F5F9"/>
</svg>
