<svg width="96" height="96" viewBox="0 0 96 96" fill="none" xmlns="http://www.w3.org/2000/svg">
<g filter="url(#filter0_d_1012_110630)">
<rect x="35" y="25" width="26" height="26" rx="13" fill="white" shape-rendering="crispEdges"/>
<path d="M47.5491 44.8795C47.5937 44.9152 47.6429 44.9442 47.6964 44.9665C47.75 44.9888 47.8036 45 47.8571 45C47.9107 45 47.9643 44.9888 48.0179 44.9665C48.0714 44.9442 48.1205 44.9152 48.1652 44.8795L53.6429 39.3214C54 38.9643 54.2679 38.558 54.4464 38.1027C54.625 37.6473 54.7143 37.183 54.7143 36.7098C54.7143 36.2366 54.625 35.7723 54.4464 35.317C54.2679 34.8616 54 34.4509 53.6429 34.0848C53.2946 33.7366 52.8996 33.4688 52.4576 33.2812C52.0156 33.0938 51.5491 33 51.058 33C50.567 33 50.0982 33.0938 49.6518 33.2812C49.2054 33.4688 48.808 33.7366 48.4598 34.0848L47.8571 34.7009L47.2545 34.0848C46.9062 33.7366 46.5089 33.4688 46.0625 33.2812C45.6161 33.0938 45.1473 33 44.6562 33C44.1652 33 43.6987 33.0938 43.2567 33.2812C42.8147 33.4688 42.4196 33.7366 42.0714 34.0848C41.7143 34.4509 41.4464 34.8616 41.2679 35.317C41.0893 35.7723 41 36.2366 41 36.7098C41 37.183 41.0893 37.6473 41.2679 38.1027C41.4464 38.558 41.7143 38.9643 42.0714 39.3214L47.5491 44.8795ZM42.6741 34.6875C42.942 34.4196 43.2455 34.2143 43.5848 34.0714C43.9241 33.9286 44.2812 33.8571 44.6562 33.8571C45.0312 33.8571 45.3884 33.9286 45.7277 34.0714C46.067 34.2143 46.3705 34.4196 46.6384 34.6875L47.5491 35.625C47.6295 35.7054 47.7321 35.7455 47.8571 35.7455C47.9821 35.7455 48.0848 35.7054 48.1652 35.625L49.0759 34.6875C49.3437 34.4196 49.6473 34.2143 49.9866 34.0714C50.3259 33.9286 50.683 33.8571 51.058 33.8571C51.433 33.8571 51.7902 33.9286 52.1295 34.0714C52.4687 34.2143 52.7723 34.4196 53.0402 34.6875C53.308 34.9643 53.5134 35.2812 53.6562 35.6384C53.7902 35.9866 53.8571 36.3438 53.8571 36.7098C53.8571 37.0759 53.7902 37.433 53.6562 37.7812C53.5134 38.1295 53.308 38.442 53.0402 38.7188L47.8571 43.9688L42.6741 38.7188C42.4062 38.442 42.2009 38.1295 42.058 37.7812C41.9241 37.433 41.8571 37.0759 41.8571 36.7098C41.8571 36.3438 41.9241 35.9866 42.058 35.6384C42.2009 35.2812 42.4062 34.9643 42.6741 34.6875Z" fill="#282828"/>
</g>
<defs>
<filter id="filter0_d_1012_110630" x="0" y="0" width="96" height="96" filterUnits="userSpaceOnUse" color-interpolation-filters="sRGB">
<feFlood flood-opacity="0" result="BackgroundImageFix"/>
<feColorMatrix in="SourceAlpha" type="matrix" values="0 0 0 0 0 0 0 0 0 0 0 0 0 0 0 0 0 0 127 0" result="hardAlpha"/>
<feOffset dy="10"/>
<feGaussianBlur stdDeviation="17.5"/>
<feComposite in2="hardAlpha" operator="out"/>
<feColorMatrix type="matrix" values="0 0 0 0 0.0196078 0 0 0 0 0.0627451 0 0 0 0 0.211765 0 0 0 0.1 0"/>
<feBlend mode="normal" in2="BackgroundImageFix" result="effect1_dropShadow_1012_110630"/>
<feBlend mode="normal" in="SourceGraphic" in2="effect1_dropShadow_1012_110630" result="shape"/>
</filter>
</defs>
</svg>
