<svg width="31" height="30" viewBox="0 0 31 30" fill="none" xmlns="http://www.w3.org/2000/svg">
<path d="M15.6668 8.66405L14.7108 7.68139C12.4668 5.37473 8.35219 6.17073 6.86686 9.07072C6.16953 10.4347 6.01219 12.404 7.28552 14.9174C8.51218 17.3374 11.0642 20.236 15.6668 23.3933C20.2695 20.236 22.8201 17.3374 24.0481 14.9174C25.3215 12.4027 25.1655 10.4347 24.4668 9.07072C22.9815 6.17073 18.8668 5.3734 16.6228 7.68006L15.6668 8.66405ZM15.6668 25C-4.77711 11.4907 9.37218 0.946744 15.4322 6.52406C15.5122 6.59739 15.5908 6.67339 15.6668 6.75206C15.7421 6.67346 15.8203 6.59785 15.9015 6.52539C21.9601 0.944078 36.1108 11.4894 15.6668 25Z" fill="#282828"/>
</svg>
