<svg width="30" height="30" viewBox="0 0 30 30" fill="none" xmlns="http://www.w3.org/2000/svg">
<path d="M12.6251 18.1609C12.5518 18.1038 12.4677 18.062 12.378 18.0378C12.2882 18.0137 12.1946 18.0077 12.1025 18.0202C12.0104 18.0328 11.9217 18.0636 11.8417 18.1109C11.7617 18.1582 11.6919 18.221 11.6365 18.2956C11.5811 18.3702 11.5411 18.4552 11.519 18.5454C11.4969 18.6357 11.493 18.7295 11.5077 18.8213C11.5223 18.9131 11.5551 19.001 11.6042 19.0799C11.6533 19.1589 11.7176 19.2272 11.7935 19.2809C12.7193 19.9731 13.844 20.3477 15 20.3488C16.156 20.3477 17.2807 19.9731 18.2065 19.2809C18.2824 19.2272 18.3467 19.1589 18.3958 19.0799C18.4449 19.001 18.4777 18.9131 18.4923 18.8213C18.507 18.7295 18.5031 18.6357 18.481 18.5454C18.4588 18.4552 18.4189 18.3702 18.3635 18.2956C18.3081 18.221 18.2383 18.1582 18.1583 18.1109C18.0783 18.0636 17.9896 18.0328 17.8975 18.0202C17.8054 18.0077 17.7118 18.0137 17.622 18.0378C17.5322 18.062 17.4482 18.1038 17.3749 18.1609C16.6895 18.6744 15.8564 18.9524 15 18.9535C14.1436 18.9524 13.3105 18.6744 12.6251 18.1609Z" fill="#282828"/>
<path fill-rule="evenodd" clip-rule="evenodd" d="M15 5C14.3414 5 13.7433 5.18884 13.093 5.50419C12.466 5.8093 11.7405 6.25953 10.8353 6.8214L8.91256 8.01488C8.05674 8.54698 7.3693 8.97302 6.84093 9.37767C6.29302 9.79628 5.87256 10.2242 5.56837 10.7795C5.26512 11.333 5.1293 11.9228 5.06326 12.6195C5 13.294 5 14.12 5 15.1553V16.6558C5 18.427 5 19.8251 5.14233 20.9181C5.28744 22.0391 5.59442 22.9442 6.28651 23.6595C6.9814 24.3786 7.86512 24.7005 8.96093 24.8521C10.0214 25 11.3777 25 13.0856 25H16.9144C18.6223 25 19.9786 25 21.0391 24.8521C22.134 24.7005 23.0186 24.3786 23.7144 23.6595C24.4056 22.9442 24.7126 22.0391 24.8586 20.9181C25 19.8251 25 18.427 25 16.6558V15.1553C25 14.12 25 13.2949 24.9367 12.6195C24.8716 11.9219 24.7349 11.333 24.4316 10.7795C24.1274 10.2242 23.706 9.79721 23.1591 9.37767C22.6307 8.97209 21.9442 8.54698 21.0874 8.01488L19.1647 6.8214C18.2595 6.25953 17.534 5.8093 16.906 5.50419C16.2577 5.18791 15.6595 5 15 5ZM11.5395 8.02698C12.4837 7.44093 13.1488 7.02977 13.7042 6.75907C14.2447 6.49581 14.6279 6.39535 15 6.39535C15.3721 6.39535 15.7553 6.49581 16.2958 6.75907C16.8521 7.02884 17.5163 7.44093 18.4605 8.02698L20.3209 9.1814C21.2149 9.73674 21.8428 10.1265 22.3116 10.4856C22.7665 10.8344 23.0279 11.1219 23.2074 11.4493C23.387 11.7777 23.4921 12.1619 23.547 12.7498C23.6037 13.3526 23.6047 14.1126 23.6047 15.1898V16.6047C23.6047 18.4372 23.6028 19.7451 23.4744 20.7377C23.3479 21.7126 23.1088 22.2781 22.7116 22.6902C22.3163 23.0986 21.7786 23.3414 20.8474 23.4707C19.893 23.6028 18.6344 23.6047 16.8605 23.6047H13.1395C11.3647 23.6047 10.107 23.6028 9.15256 23.4707C8.2214 23.3405 7.68372 23.0986 7.2893 22.6893C6.89116 22.2781 6.65209 21.7126 6.52651 20.7377C6.39628 19.7451 6.39535 18.4381 6.39535 16.6047V15.1898C6.39535 14.1126 6.39535 13.3526 6.45302 12.7498C6.50791 12.1619 6.61302 11.7777 6.79256 11.4493C6.97209 11.1219 7.23349 10.8344 7.6893 10.4856C8.15721 10.1265 8.78512 9.73674 9.67907 9.1814L11.5395 8.02698Z" fill="#282828"/>
</svg>
