<svg width="32" height="33" viewBox="0 0 32 33" fill="none" xmlns="http://www.w3.org/2000/svg">
<path d="M16 21.5967C18.7614 21.5967 21 19.3581 21 16.5967C21 13.8353 18.7614 11.5967 16 11.5967C13.2386 11.5967 11 13.8353 11 16.5967C11 19.3581 13.2386 21.5967 16 21.5967Z" stroke="#282828" stroke-width="2" stroke-miterlimit="10"/>
<path d="M21.5 5.09668H10.5C7.18629 5.09668 4.5 7.78297 4.5 11.0967V22.0967C4.5 25.4104 7.18629 28.0967 10.5 28.0967H21.5C24.8137 28.0967 27.5 25.4104 27.5 22.0967V11.0967C27.5 7.78297 24.8137 5.09668 21.5 5.09668Z" stroke="#282828" stroke-width="2" stroke-linecap="round" stroke-linejoin="round"/>
<path d="M22.5 11.5967C23.3284 11.5967 24 10.9251 24 10.0967C24 9.26825 23.3284 8.59668 22.5 8.59668C21.6716 8.59668 21 9.26825 21 10.0967C21 10.9251 21.6716 11.5967 22.5 11.5967Z" fill="#282828"/>
</svg>
