<svg width="31" height="30" viewBox="0 0 31 30" fill="none" xmlns="http://www.w3.org/2000/svg">
<path fill-rule="evenodd" clip-rule="evenodd" d="M14.7158 0.575391C14.3994 0.891797 14.1404 1.42383 14.1404 1.75781C14.1404 2.0918 14.3994 2.62383 14.7158 2.94023C15.0322 3.25664 15.5642 3.51562 15.8982 3.51562C16.6796 3.51562 17.656 2.53922 17.656 1.75781C17.656 0.976406 16.6796 0 15.8982 0C15.5642 0 15.0322 0.258984 14.7158 0.575391ZM6.74701 4.09102C6.43061 4.40742 6.17162 4.93945 6.17162 5.27344C6.17162 6.09047 7.14756 7.03125 7.99506 7.03125C8.83928 7.03125 9.68725 6.16687 9.68725 5.30625C9.68725 4.49203 8.72865 3.51562 7.92944 3.51562C7.59545 3.51562 7.06342 3.77461 6.74701 4.09102ZM22.5779 5.85938C21.7299 6.70734 22.0826 8.26078 23.2212 8.69367C24.0247 8.99906 25.0067 8.60016 25.3599 7.82461C25.7307 7.01109 25.6946 6.71461 25.1389 6.0082C24.5302 5.2343 23.2758 5.16141 22.5779 5.85938ZM14.1474 8.33977C12.5295 9.04148 11.5622 10.5159 11.5622 12.2801C11.5622 13.5947 11.885 14.4626 12.6905 15.3138C13.624 16.3005 14.5048 16.6741 15.8982 16.6741C18.4622 16.6741 20.2341 14.8786 20.2341 12.2801C20.2341 11.1734 19.6451 9.76219 18.9029 9.09094C17.7174 8.01891 15.6427 7.69125 14.1474 8.33977ZM24.3258 13.8389C24.0655 14.1267 23.9009 14.6421 23.9147 15.128L23.9377 15.9375H22.6911C21.5361 15.9375 21.4095 15.9937 20.9712 16.7027C19.9604 18.3387 18.0774 19.3076 15.8982 19.3134C14.518 19.3174 14.0551 19.208 12.9828 18.6239C12.2185 18.2077 11.4261 17.5308 11.004 16.9336L10.3001 15.9375H7.51694C4.74264 15.9375 4.7342 15.9391 4.8835 16.4648C5.27608 17.8481 6.50608 19.953 7.57108 21.0638L8.74975 22.2933V26.1466V30H15.8982H23.0466V26.0721C23.0466 22.5614 23.0909 22.1163 23.4633 21.8838C24.2682 21.3811 25.9107 18.9834 26.5845 17.3276C27.372 15.3926 27.4489 14.3013 26.8367 13.7473C26.229 13.1972 24.8614 13.2471 24.3258 13.8389Z" fill="white"/>
</svg>
