<svg width="31" height="30" viewBox="0 0 31 30" fill="none" xmlns="http://www.w3.org/2000/svg">
<path fill-rule="evenodd" clip-rule="evenodd" d="M13.2313 7.44951C13.0193 10.454 11.9823 11.4793 11.0845 9.57243C10.5429 8.42216 10.0002 8.44041 8.41699 9.66183C5.32025 12.0508 3.6097 16.5944 4.33053 20.5165C4.71762 22.6231 6.02282 25.0699 7.60138 26.6485C12.0494 31.0965 19.059 31.1199 23.5463 26.7018C26.911 23.3888 27.9557 18.1479 26.0313 14.2358C25.4696 13.0939 24.9199 12.3773 21.96 8.9258C21.96 8.9258 21.1342 8.10123 20.7232 7.48345C19.3201 5.37451 19.7299 3.09834 19.9639 0.875019C20.0863 -0.287161 17.222 -0.478629 15.2833 1.46011C13.5063 3.23711 13.3995 5.06139 13.2313 7.44951ZM14.0113 15.006C14.9355 16.0402 14.9229 17.593 13.9828 18.5333C12.7805 19.7356 11.3806 19.7356 10.1783 18.5333C8.97282 17.3278 9.43082 14.9707 11.0012 14.298C11.9284 13.9009 13.3153 14.2271 14.0113 15.006ZM19.7943 14.4204C19.9495 14.6074 20.0412 14.9215 19.9986 15.1183C19.9558 15.3154 18.2588 17.5322 16.2274 20.0443C12.5147 24.6365 12.0342 25.0512 11.3628 24.2421C10.9635 23.761 10.89 23.8721 15.1656 18.4889C18.6485 14.104 19.1591 13.6551 19.7943 14.4204ZM11.4065 16.3685C11.1159 16.9115 11.4927 17.5911 12.0841 17.5911C12.6698 17.5911 13.0492 16.889 12.7513 16.3564C12.4576 15.8317 11.6902 15.8384 11.4065 16.3685ZM20.8802 20.2591C21.5325 20.9114 21.6759 21.232 21.6759 22.0378C21.6759 22.8435 21.5325 23.1642 20.8802 23.8164C20.228 24.4687 19.9073 24.6121 19.1016 24.6121C18.2958 24.6121 17.9752 24.4687 17.3229 23.8164C16.6706 23.1642 16.5272 22.8435 16.5272 22.0378C16.5272 21.232 16.6706 20.9114 17.3229 20.2591C17.9752 19.6069 18.2958 19.4634 19.1016 19.4634C19.9073 19.4634 20.228 19.6069 20.8802 20.2591ZM18.5331 21.4693C18.3309 21.6717 18.1654 21.9275 18.1654 22.0378C18.1654 22.148 18.3309 22.4038 18.5331 22.6062C18.7355 22.8084 18.9913 22.9739 19.1016 22.9739C19.2118 22.9739 19.4676 22.8084 19.67 22.6062C19.8722 22.4038 20.0377 22.148 20.0377 22.0378C20.0377 21.9275 19.8722 21.6717 19.67 21.4693C19.4676 21.2671 19.2118 21.1016 19.1016 21.1016C18.9913 21.1016 18.7355 21.2671 18.5331 21.4693Z" fill="white"/>
</svg>
