<svg width="31" height="30" viewBox="0 0 31 30" fill="none" xmlns="http://www.w3.org/2000/svg">
<g clip-path="url(#clip0_172_2456)">
<path d="M0.5 1.875C0.5 0.837891 1.33789 0 2.375 0H28.625C29.6621 0 30.5 0.837891 30.5 1.875C30.5 2.91211 29.6621 3.75 28.625 3.75V26.25C29.6621 26.25 30.5 27.0879 30.5 28.125C30.5 29.1621 29.6621 30 28.625 30H18.3125V27.1875C18.3125 25.6348 17.0527 24.375 15.5 24.375C13.9473 24.375 12.6875 25.6348 12.6875 27.1875V30H2.375C1.33789 30 0.5 29.1621 0.5 28.125C0.5 27.0879 1.33789 26.25 2.375 26.25V3.75C1.33789 3.75 0.5 2.91211 0.5 1.875ZM6.125 6.5625V8.4375C6.125 8.95312 6.54688 9.375 7.0625 9.375H8.9375C9.45312 9.375 9.875 8.95312 9.875 8.4375V6.5625C9.875 6.04688 9.45312 5.625 8.9375 5.625H7.0625C6.54688 5.625 6.125 6.04688 6.125 6.5625ZM14.5625 5.625C14.0469 5.625 13.625 6.04688 13.625 6.5625V8.4375C13.625 8.95312 14.0469 9.375 14.5625 9.375H16.4375C16.9531 9.375 17.375 8.95312 17.375 8.4375V6.5625C17.375 6.04688 16.9531 5.625 16.4375 5.625H14.5625ZM21.125 6.5625V8.4375C21.125 8.95312 21.5469 9.375 22.0625 9.375H23.9375C24.4531 9.375 24.875 8.95312 24.875 8.4375V6.5625C24.875 6.04688 24.4531 5.625 23.9375 5.625H22.0625C21.5469 5.625 21.125 6.04688 21.125 6.5625ZM7.0625 11.25C6.54688 11.25 6.125 11.6719 6.125 12.1875V14.0625C6.125 14.5781 6.54688 15 7.0625 15H8.9375C9.45312 15 9.875 14.5781 9.875 14.0625V12.1875C9.875 11.6719 9.45312 11.25 8.9375 11.25H7.0625ZM13.625 12.1875V14.0625C13.625 14.5781 14.0469 15 14.5625 15H16.4375C16.9531 15 17.375 14.5781 17.375 14.0625V12.1875C17.375 11.6719 16.9531 11.25 16.4375 11.25H14.5625C14.0469 11.25 13.625 11.6719 13.625 12.1875ZM22.0625 11.25C21.5469 11.25 21.125 11.6719 21.125 12.1875V14.0625C21.125 14.5781 21.5469 15 22.0625 15H23.9375C24.4531 15 24.875 14.5781 24.875 14.0625V12.1875C24.875 11.6719 24.4531 11.25 23.9375 11.25H22.0625ZM19.7188 22.5C20.498 22.5 21.1426 21.8613 20.9492 21.1055C20.3281 18.6738 18.125 16.875 15.5 16.875C12.875 16.875 10.666 18.6738 10.0508 21.1055C9.85742 21.8555 10.5078 22.5 11.2812 22.5H19.7188Z" fill="white"/>
</g>
<defs>
<clipPath id="clip0_172_2456">
<rect width="30" height="30" fill="white" transform="translate(0.5)"/>
</clipPath>
</defs>
</svg>
