<svg width="31" height="30" viewBox="0 0 31 30" fill="none" xmlns="http://www.w3.org/2000/svg">
<g clip-path="url(#clip0_133_255)">
<path fill-rule="evenodd" clip-rule="evenodd" d="M9.32788 -0.128758C9.24951 0.075402 9.18544 0.920201 9.18544 1.74857V3.25466H14.9195C18.4003 3.25466 20.9131 3.35275 21.3142 3.50435C22.9704 4.1302 24.1905 6.08357 24.1989 8.12399L24.2041 9.35599H25.6168H27.0297L26.9661 4.48666L26.9028 -0.382667L23.3241 -0.447435C20.4419 -0.499531 19.7454 -0.450485 19.7454 -0.194934C19.7454 0.315935 18.7098 1.14266 18.0699 1.14266C17.4713 1.14266 16.4601 0.285663 16.4601 -0.221686C16.4601 -0.423733 15.5034 -0.5 12.9652 -0.5C9.99481 -0.5 9.44897 -0.444384 9.32788 -0.128758ZM3.19159 5.19066C3.12988 5.35211 3.10688 10.8696 3.14044 17.452L3.20145 29.42L12.0014 29.4838C18.6446 29.5321 20.9357 29.4768 21.3494 29.2576C22.5457 28.6237 22.5614 28.4677 22.5614 17.2136C22.5614 9.96471 22.4807 6.58622 22.2993 6.23117C21.6096 4.88278 21.8039 4.90812 12.1702 4.90249C5.28975 4.8985 3.27889 4.96303 3.19159 5.19066ZM15.1791 9.91144C18.7192 11.56 19.5305 16.0775 16.7802 18.8281C14.4889 21.1193 11.0506 21.0663 8.78674 18.7046C6.23921 16.047 7.05326 11.6339 10.3982 9.96683C11.9836 9.17694 13.5624 9.15863 15.1791 9.91144ZM24.2041 18.3906V26.0173H25.3305C25.95 26.0173 26.5836 25.8906 26.7385 25.7357C26.9455 25.5287 27.0201 23.509 27.0201 18.109V10.764H25.6121H24.2041V18.3906ZM10.2727 11.72C9.59259 12.2551 8.95078 13.3305 8.95078 13.9353C8.95078 14.2194 9.1364 14.2955 9.69631 14.2401C10.3996 14.1709 10.4594 14.088 10.7551 12.7809C10.9274 12.019 11.0304 11.3575 10.9842 11.311C10.9377 11.2648 10.6176 11.4487 10.2727 11.72ZM14.5828 11.346C14.5828 11.4171 14.7585 12.107 14.9733 12.8795C15.3536 14.2481 15.3844 14.284 16.1717 14.284C16.8121 14.284 16.9501 14.207 16.8372 13.9127C16.7588 13.7086 16.6948 13.4528 16.6948 13.3441C16.6948 13.0438 15.5292 11.7233 15.0268 11.4544C14.7825 11.3237 14.5828 11.2749 14.5828 11.346ZM12.4999 12.1175C12.3776 12.3459 12.2037 12.9267 12.1134 13.4082L11.9491 14.284H12.7967C13.7511 14.284 13.8166 14.0932 13.3724 12.6099C13.0743 11.6156 12.8394 11.483 12.4999 12.1175ZM8.95242 16.0879C8.95523 16.8754 10.604 18.8102 10.9647 18.4495C11.0231 18.3911 10.9257 17.773 10.7483 17.0763C10.451 15.9095 10.3672 15.8034 9.6881 15.7359C9.10495 15.6777 8.95101 15.7514 8.95242 16.0879ZM12.0014 16.009C12.0014 16.4453 12.4912 17.8732 12.7322 18.1388C12.957 18.3869 13.6441 16.9029 13.6441 16.1688C13.6441 15.7802 13.492 15.692 12.8228 15.692C12.2894 15.692 12.0014 15.8032 12.0014 16.009ZM15.1544 16.3373C15.0767 16.6924 14.916 17.2901 14.797 17.666C14.5196 18.5425 14.6604 18.6647 15.3938 18.1844C15.8873 17.861 16.9294 16.2556 16.9294 15.8187C16.9294 15.749 16.5619 15.692 16.1126 15.692C15.4121 15.692 15.2755 15.784 15.1544 16.3373ZM17.724 22.8561C18.1725 23.3043 17.9753 23.8703 17.3143 24.0327C17.0381 24.1005 14.87 24.1261 12.4961 24.0893C8.76985 24.0318 8.14634 23.9691 7.93373 23.6317C7.75492 23.348 7.77205 23.1384 7.99568 22.869C8.44765 22.3246 17.181 22.3131 17.724 22.8561Z" fill="white"/>
</g>
<defs>
<clipPath id="clip0_133_255">
<rect width="30" height="30" fill="white" transform="matrix(1 0 0 -1 0.5 30)"/>
</clipPath>
</defs>
</svg>
