<svg width="28" height="29" viewBox="0 0 28 29" fill="none" xmlns="http://www.w3.org/2000/svg">
<path d="M23.333 5.27832H4.66634C3.38301 5.27832 2.33301 6.32832 2.33301 7.61165V21.6117C2.33301 22.895 3.38301 23.945 4.66634 23.945H23.333C24.6163 23.945 25.6663 22.895 25.6663 21.6117V7.61165C25.6663 6.32832 24.6163 5.27832 23.333 5.27832ZM22.8663 10.2367L15.2363 15.0083C14.478 15.4867 13.5213 15.4867 12.763 15.0083L5.13301 10.2367C5.01602 10.171 4.91358 10.0823 4.83188 9.97585C4.75018 9.86944 4.69091 9.74756 4.65768 9.61759C4.62444 9.48761 4.61793 9.35224 4.63852 9.21968C4.65912 9.08711 4.7064 8.9601 4.7775 8.84634C4.84861 8.73257 4.94205 8.63442 5.05219 8.55781C5.16232 8.48121 5.28686 8.42775 5.41825 8.40067C5.54965 8.37359 5.68517 8.37345 5.81662 8.40026C5.94807 8.42707 6.07272 8.48028 6.18301 8.55665L13.9997 13.445L21.8163 8.55665C21.9266 8.48028 22.0513 8.42707 22.1827 8.40026C22.3142 8.37345 22.4497 8.37359 22.5811 8.40067C22.7125 8.42775 22.837 8.48121 22.9472 8.55781C23.0573 8.63442 23.1507 8.73257 23.2218 8.84634C23.2929 8.9601 23.3402 9.08711 23.3608 9.21968C23.3814 9.35224 23.3749 9.48761 23.3417 9.61759C23.3084 9.74756 23.2492 9.86944 23.1675 9.97585C23.0858 10.0823 22.9833 10.171 22.8663 10.2367Z" fill="#0269B8"/>
</svg>
