<svg width="140" height="43" viewBox="0 0 140 43" fill="none" xmlns="http://www.w3.org/2000/svg">
<path d="M5.18519 1.32324H134.815C137.403 1.32324 139.5 3.41682 139.5 5.99717V37.0407C139.5 39.621 137.403 41.7145 134.815 41.7145H5.18519C2.5966 41.7145 0.5 39.621 0.5 37.0407V5.99717C0.5 3.41685 2.59661 1.32324 5.18519 1.32324Z" fill="black" stroke="white"/>
<path d="M48.5946 10.4233C48.6123 10.8039 48.5524 11.1841 48.4186 11.5408C48.2848 11.8975 48.08 12.2234 47.8165 12.4985C47.5222 12.8041 47.1669 13.0444 46.7735 13.2035C46.3802 13.3626 45.9579 13.437 45.5338 13.4219C44.8905 13.4169 44.263 13.2221 43.7299 12.862C43.1968 12.5019 42.7818 11.9925 42.537 11.3975C42.2922 10.8026 42.2283 10.1487 42.3535 9.51764C42.4787 8.8866 42.7873 8.30655 43.2408 7.85017C43.5388 7.54594 43.896 7.30609 44.2904 7.14547C44.6848 6.98484 45.108 6.90687 45.5338 6.91635C45.9725 6.91489 46.4067 7.00317 46.81 7.17574C47.1855 7.32719 47.5197 7.56542 47.7853 7.87092L47.2354 8.42083C47.0283 8.1745 46.7668 7.97972 46.4715 7.85187C46.1761 7.72401 45.8551 7.66659 45.5338 7.68416C45.2097 7.68257 44.8886 7.74644 44.5898 7.87194C44.291 7.99744 44.0206 8.182 43.7949 8.41455C43.5691 8.64708 43.3927 8.92281 43.2761 9.22521C43.1594 9.5276 43.105 9.85042 43.1162 10.1743C43.1094 10.658 43.246 11.1328 43.5088 11.5389C43.7715 11.945 44.1487 12.2642 44.5927 12.4562C45.0367 12.6483 45.5275 12.7044 46.0034 12.6178C46.4793 12.5312 46.9187 12.3055 47.2666 11.9693C47.5858 11.6233 47.77 11.174 47.7853 10.7035H45.5338V9.95643H48.5531C48.5809 10.1105 48.5947 10.2668 48.5946 10.4233ZM53.3467 7.82942H50.5452V9.8008H53.0977V10.5479H50.5452V12.5192H53.3467V13.287H49.7152V7.06161H53.3467V7.82942ZM56.7499 13.287H55.9511V7.82942H54.2079V7.06161H58.5346V7.82942H56.7499V13.287ZM61.585 13.287V7.06161H62.3839V13.287H61.585ZM65.9325 13.287H65.1335V7.82942H63.3904V7.06161H67.6652V7.82942H65.9325V13.287ZM75.7686 12.4777C75.162 13.0809 74.3413 13.4195 73.486 13.4195C72.6305 13.4195 71.8099 13.0809 71.2033 12.4777C70.6137 11.8537 70.2852 11.0277 70.2852 10.1691C70.2852 9.31061 70.6137 8.48462 71.2033 7.86055C71.5023 7.55938 71.8579 7.32036 72.2496 7.15725C72.6414 6.99413 73.0616 6.91016 73.486 6.91016C73.9103 6.91016 74.3305 6.99413 74.7223 7.15725C75.114 7.32036 75.4696 7.55938 75.7686 7.86055C76.3605 8.48343 76.6905 9.30987 76.6905 10.1691C76.6905 11.0284 76.3605 11.8549 75.7686 12.4777ZM71.7947 11.959C72.2439 12.4063 72.852 12.6574 73.486 12.6574C74.1199 12.6574 74.728 12.4063 75.1772 11.959C75.6205 11.4703 75.866 10.8341 75.866 10.1743C75.866 9.51455 75.6205 8.87839 75.1772 8.3897C74.728 7.94238 74.1199 7.69123 73.486 7.69123C72.852 7.69123 72.2439 7.94238 71.7947 8.3897C71.3514 8.87839 71.1059 9.51455 71.1059 10.1743C71.1059 10.8341 71.3514 11.4703 71.7947 11.959ZM77.8126 13.287V7.06161H78.788L81.8176 11.9071V7.06161H82.6166V13.287H81.7865L78.6219 8.21331V13.287H77.8126Z" fill="white" stroke="white" stroke-width="0.181196" stroke-miterlimit="10"/>
<path d="M70.0943 22.3653C69.223 22.3695 68.3725 22.6316 67.65 23.1185C66.9276 23.6056 66.3657 24.2957 66.0352 25.1018C65.7045 25.9079 65.6201 26.7939 65.7926 27.6479C65.9652 28.5019 66.3867 29.2857 67.0042 29.9004C67.6218 30.515 68.4075 30.933 69.2623 31.1014C70.1172 31.2698 71.0027 31.1813 71.8073 30.847C72.6119 30.5126 73.2993 29.9474 73.783 29.2226C74.2665 28.4979 74.5247 27.6462 74.5247 26.775C74.5331 26.1918 74.4242 25.6128 74.2042 25.0727C73.9844 24.5325 73.658 24.042 73.2445 23.6307C72.8312 23.2192 72.3393 22.8951 71.798 22.6777C71.2568 22.4604 70.6774 22.3541 70.0943 22.3653ZM70.0943 29.4519C69.5584 29.4894 69.0237 29.3648 68.5597 29.0943C68.0956 28.8239 67.7236 28.4201 67.4921 27.9355C67.2606 27.4507 67.1801 26.9076 67.2614 26.3767C67.3426 25.8457 67.5817 25.3516 67.9476 24.9582C68.3134 24.5649 68.789 24.2909 69.3127 24.1714C69.8365 24.0521 70.3839 24.0932 70.884 24.289C71.3841 24.485 71.8137 24.8269 72.117 25.2703C72.4202 25.7135 72.5831 26.2378 72.5845 26.775C72.6012 27.1153 72.5495 27.4556 72.4327 27.7756C72.3158 28.0957 72.136 28.3892 71.904 28.6387C71.6719 28.8881 71.3922 29.0886 71.0814 29.2284C70.7706 29.368 70.4349 29.444 70.0943 29.4519ZM60.4345 22.3653C59.5628 22.3674 58.7112 22.6278 57.9875 23.1135C57.2636 23.5993 56.7001 24.2887 56.3678 25.0947C56.0357 25.9006 55.9499 26.7869 56.1212 27.6416C56.2925 28.4963 56.7133 29.2811 57.3304 29.8967C57.9475 30.5125 58.7332 30.9314 59.5883 31.1007C60.4436 31.2699 61.3296 31.182 62.1348 30.848C62.9399 30.5139 63.628 29.9487 64.112 29.2237C64.5962 28.4989 64.8545 27.6467 64.8545 26.775C64.863 26.1918 64.7541 25.6128 64.5341 25.0727C64.3142 24.5325 63.9879 24.042 63.5744 23.6307C63.161 23.2192 62.6691 22.8951 62.1279 22.6777C61.5867 22.4604 61.0072 22.3541 60.4241 22.3653H60.4345ZM60.4345 29.4519C59.8984 29.4916 59.3629 29.3687 58.8975 29.0997C58.4321 28.8306 58.0586 28.4277 57.8254 27.9434C57.5922 27.459 57.5102 26.9157 57.5902 26.3842C57.6701 25.8527 57.9082 25.3574 58.2736 24.9631C58.6389 24.5687 59.1144 24.2935 59.6384 24.1733C60.1622 24.0529 60.7103 24.0932 61.211 24.2887C61.7117 24.4842 62.1419 24.8259 62.4458 25.2693C62.7495 25.7128 62.9128 26.2375 62.9142 26.775C62.931 27.1153 62.8794 27.4556 62.7626 27.7756C62.6457 28.0957 62.4659 28.3892 62.2338 28.6387C62.0017 28.8881 61.7221 29.0886 61.4113 29.2284C61.1005 29.368 60.7648 29.444 60.4241 29.4519H60.4345ZM48.9279 23.7245V25.5921H53.4102C53.3398 26.4718 52.9742 27.3018 52.3726 27.9474C51.9241 28.4042 51.3851 28.7621 50.79 28.9979C50.1949 29.2338 49.557 29.3426 48.9174 29.317C47.5965 29.317 46.3298 28.7923 45.3959 27.8583C44.4619 26.9243 43.9372 25.6575 43.9372 24.3366C43.9372 23.0158 44.4619 21.7491 45.3959 20.8151C46.3298 19.8811 47.5965 19.3564 48.9174 19.3564C50.1811 19.3357 51.4011 19.8171 52.3103 20.6948L53.628 19.3771C53.0143 18.7556 52.282 18.2637 51.4747 17.9304C50.6673 17.5972 49.8012 17.4293 48.9279 17.4368C48.0055 17.4009 47.0852 17.5516 46.2225 17.8798C45.3597 18.208 44.5721 18.7071 43.9068 19.347C43.2414 19.9869 42.7122 20.7546 42.3507 21.604C41.9891 22.4533 41.8027 23.3669 41.8027 24.29C41.8027 25.2132 41.9891 26.1267 42.3507 26.9761C42.7122 27.8254 43.2414 28.593 43.9068 29.233C44.5721 29.8728 45.3597 30.3719 46.2225 30.7002C47.0852 31.0284 48.0055 31.1791 48.9279 31.1432C49.816 31.1832 50.7024 31.0328 51.5274 30.7016C52.3525 30.3705 53.0971 29.8666 53.711 29.2236C54.798 28.0294 55.3785 26.4593 55.3297 24.8451C55.3329 24.4518 55.2982 24.0592 55.2259 23.6727L48.9279 23.7245ZM95.9401 25.1771C95.6696 24.3811 95.1635 23.6859 94.4891 23.1838C93.8147 22.6817 93.0037 22.3962 92.1634 22.3653C91.5959 22.3642 91.034 22.4795 90.5129 22.7041C89.9917 22.9287 89.522 23.2578 89.1331 23.6711C88.7441 24.0844 88.444 24.5731 88.2513 25.107C88.0587 25.6408 87.9777 26.2085 88.0131 26.775C88.0005 27.3549 88.1049 27.9314 88.3201 28.47C88.5352 29.0087 88.8568 29.4985 89.2655 29.9101C89.6742 30.3217 90.1617 30.6467 90.6988 30.8656C91.2359 31.0846 91.8117 31.1931 92.3917 31.1847C93.1175 31.1886 93.8328 31.0124 94.4739 30.6721C95.1149 30.3316 95.6615 29.8375 96.0647 29.2341L94.5602 28.1965C94.3356 28.5708 94.0177 28.8804 93.6377 29.0951C93.2575 29.3097 92.8282 29.4219 92.3917 29.4208C91.9422 29.4379 91.498 29.3194 91.1168 29.0807C90.7357 28.842 90.4351 28.4942 90.2543 28.0823L96.158 25.644L95.9401 25.1771ZM89.9222 26.6505C89.9013 26.3295 89.9445 26.0076 90.0494 25.7037C90.1544 25.3997 90.3188 25.1195 90.5333 24.88C90.7478 24.6404 91.008 24.446 91.2986 24.308C91.5892 24.1702 91.9044 24.0918 92.2256 24.0773C92.5603 24.0553 92.8941 24.132 93.1855 24.298C93.477 24.464 93.7133 24.712 93.865 25.0111L89.9222 26.6505ZM85.1287 30.9253H87.0689V17.9557H85.1287V30.9253ZM81.9538 23.351H81.8811C81.5887 23.024 81.2304 22.7627 80.8299 22.5838C80.4293 22.405 79.9956 22.3128 79.557 22.3135C78.4231 22.3684 77.3538 22.8575 76.5708 23.6795C75.7877 24.5014 75.351 25.5931 75.351 26.7283C75.351 27.8635 75.7877 28.9552 76.5708 29.7772C77.3538 30.599 78.4231 31.0882 79.557 31.1432C79.9966 31.1505 80.4325 31.0615 80.8341 30.8822C81.2356 30.703 81.593 30.4378 81.8811 30.1056H81.9433V30.7385C81.9433 32.4297 81.0406 33.3324 79.588 33.3324C79.1042 33.3211 78.6348 33.166 78.2394 32.8871C77.844 32.6081 77.5405 32.2177 77.3676 31.7656L75.6764 32.4712C75.9948 33.2456 76.5372 33.9073 77.2342 34.3714C77.9311 34.8353 78.7508 35.0806 79.588 35.0755C81.8603 35.0755 83.7383 33.7371 83.7383 30.4791V22.6247H81.9538V23.351ZM79.7334 29.4519C79.064 29.393 78.4411 29.0853 77.9874 28.5898C77.5337 28.0944 77.2819 27.4468 77.2819 26.775C77.2819 26.1031 77.5337 25.4555 77.9874 24.9601C78.4411 24.4646 79.064 24.1571 79.7334 24.098C80.0651 24.1151 80.3903 24.1983 80.6894 24.343C80.9885 24.4876 81.2557 24.6905 81.4752 24.94C81.6947 25.1895 81.8621 25.4804 81.9674 25.7956C82.0727 26.1106 82.114 26.4437 82.0885 26.775C82.1169 27.1077 82.0774 27.4427 81.9725 27.7598C81.8677 28.0768 81.6996 28.3694 81.4785 28.6195C81.2573 28.8698 80.9878 29.0725 80.686 29.2157C80.3843 29.3587 80.0566 29.4391 79.7229 29.4519H79.7334ZM105.029 17.9557H100.391V30.9253H102.332V26.0071H105.04C105.593 26.047 106.148 25.9723 106.671 25.788C107.194 25.6037 107.673 25.3136 108.079 24.9358C108.484 24.5582 108.808 24.101 109.03 23.5926C109.251 23.0843 109.365 22.5358 109.365 21.9814C109.365 21.427 109.251 20.8785 109.03 20.3703C108.808 19.8619 108.484 19.4046 108.079 19.027C107.673 18.6492 107.194 18.3591 106.671 18.1748C106.148 17.9905 105.593 17.9159 105.04 17.9557H105.029ZM105.029 24.1811H102.321V19.761H105.071C105.661 19.761 106.227 19.9955 106.645 20.4129C107.062 20.8302 107.296 21.3963 107.296 21.9866C107.296 22.5769 107.062 23.143 106.645 23.5603C106.227 23.9778 105.661 24.2122 105.071 24.2122L105.029 24.1811ZM116.992 22.3135C116.286 22.2712 115.583 22.4363 114.969 22.7884C114.355 23.1404 113.858 23.6642 113.537 24.2952L115.26 25.0111C115.43 24.6981 115.687 24.4412 116 24.2718C116.313 24.1023 116.669 24.0275 117.024 24.0565C117.27 24.0278 117.519 24.0484 117.758 24.117C117.996 24.1858 118.218 24.3012 118.411 24.4568C118.605 24.6123 118.765 24.8046 118.883 25.0228C119.001 25.2408 119.074 25.4803 119.099 25.727V25.8619C118.476 25.532 117.781 25.361 117.075 25.3639C115.218 25.3639 113.34 26.4015 113.34 28.2794C113.359 28.6799 113.457 29.0725 113.63 29.4343C113.802 29.796 114.046 30.1195 114.346 30.3855C114.646 30.6515 114.996 30.8547 115.376 30.9831C115.755 31.1114 116.157 31.1623 116.557 31.1327C117.045 31.1679 117.534 31.0708 117.972 30.8518C118.411 30.6326 118.782 30.2997 119.047 29.8877H119.109V30.9253H120.977V25.9346C120.977 23.6623 119.254 22.3445 117.044 22.3445L116.992 22.3135ZM116.754 29.4208C116.121 29.4208 115.239 29.0992 115.239 28.3209C115.239 27.2833 116.339 26.941 117.314 26.941C117.93 26.9258 118.54 27.0763 119.078 27.3768C119.013 27.9385 118.747 28.4579 118.33 28.8392C117.912 29.2206 117.371 29.4381 116.806 29.4519L116.754 29.4208ZM127.784 22.6247L125.563 28.2484H125.5L123.197 22.6247H121.122L124.577 30.4895L122.606 34.8577H124.63L129.941 22.6247H127.784ZM110.342 30.9253H112.282V17.9557H110.342V30.9253Z" fill="white"/>
<path d="M10.2271 7.62292C9.88892 8.02873 9.71823 8.54823 9.74981 9.07553V32.0266C9.71823 32.5539 9.88892 33.0733 10.2271 33.4792L10.2997 33.5518L23.1552 20.7067V20.4058L10.2997 7.55029L10.2271 7.62292Z" fill="url(#paint0_linear_939_165344)"/>
<path d="M27.4083 24.9917L23.1543 20.7065V20.4057L27.4083 16.1101L27.5017 16.162L32.5961 19.0568C34.0487 19.8765 34.0487 21.2253 32.5961 22.0554L27.5224 24.9398L27.4083 24.9917Z" fill="url(#paint1_linear_939_165344)"/>
<path d="M27.5332 24.929L23.1546 20.5505L10.2266 33.4786C10.5226 33.7389 10.9004 33.8875 11.2944 33.8989C11.6885 33.9103 12.0741 33.7836 12.3847 33.5408L27.5436 24.929" fill="url(#paint2_linear_939_165344)"/>
<path d="M27.5338 16.172L12.375 7.56018C12.0643 7.31741 11.6786 7.19075 11.2846 7.20212C10.8906 7.21349 10.5129 7.36216 10.2168 7.62244L23.1554 20.5506L27.5338 16.172Z" fill="url(#paint3_linear_939_165344)"/>
<path opacity="0.2" d="M27.4087 24.8364L12.3743 33.3964C12.0748 33.6204 11.7108 33.7414 11.3368 33.7414C10.9627 33.7414 10.5987 33.6204 10.2992 33.3964L10.2266 33.4691L10.2992 33.5417C10.5981 33.7672 10.9623 33.8893 11.3368 33.8893C11.7112 33.8893 12.0754 33.7672 12.3743 33.5417L27.5332 24.9299L27.4087 24.8364Z" fill="black"/>
<path opacity="0.12" d="M10.2271 33.3334C9.88892 32.9275 9.71823 32.408 9.74981 31.8808V32.0364C9.71823 32.5636 9.88892 33.0832 10.2271 33.489L10.2997 33.4163L10.2271 33.3334ZM32.5972 21.8993L27.4093 24.8356L27.5026 24.929L32.5972 22.0446C32.8862 21.9088 33.1343 21.6991 33.3165 21.4368C33.4986 21.1744 33.6084 20.8688 33.6347 20.5505C33.5763 20.8397 33.4525 21.1116 33.2726 21.3455C33.0928 21.5792 32.8617 21.7688 32.5972 21.8993Z" fill="black"/>
<path opacity="0.25" d="M12.3737 7.70561L32.596 19.2018C32.8605 19.3325 33.0916 19.5219 33.2714 19.7558C33.4513 19.9896 33.5751 20.2616 33.6336 20.5507C33.6073 20.2325 33.4975 19.9267 33.3154 19.6643C33.1331 19.4021 32.885 19.1925 32.596 19.0566L12.3737 7.56036C10.9211 6.74067 9.73828 7.42547 9.73828 9.08559V9.24122C9.76941 7.57073 10.9315 6.88593 12.3737 7.70561Z" fill="white"/>
<defs>
<linearGradient id="paint0_linear_939_165344" x1="22.0139" y1="8.83688" x2="4.60347" y2="26.2473" gradientUnits="userSpaceOnUse">
<stop stop-color="#00A0FF"/>
<stop offset="0.01" stop-color="#00A1FF"/>
<stop offset="0.26" stop-color="#00BEFF"/>
<stop offset="0.51" stop-color="#00D2FF"/>
<stop offset="0.76" stop-color="#00DFFF"/>
<stop offset="1" stop-color="#00E3FF"/>
</linearGradient>
<linearGradient id="paint1_linear_939_165344" x1="34.4949" y1="20.5509" x2="9.39609" y2="20.5509" gradientUnits="userSpaceOnUse">
<stop stop-color="#FFE000"/>
<stop offset="0.41" stop-color="#FFBD00"/>
<stop offset="0.78" stop-color="#FFA500"/>
<stop offset="1" stop-color="#FF9C00"/>
</linearGradient>
<linearGradient id="paint2_linear_939_165344" x1="25.1572" y1="22.9369" x2="1.54209" y2="46.5416" gradientUnits="userSpaceOnUse">
<stop stop-color="#FF3A44"/>
<stop offset="1" stop-color="#C31162"/>
</linearGradient>
<linearGradient id="paint3_linear_939_165344" x1="6.9692" y1="-0.0140854" x2="17.5109" y2="10.5276" gradientUnits="userSpaceOnUse">
<stop stop-color="#32A071"/>
<stop offset="0.07" stop-color="#2DA771"/>
<stop offset="0.48" stop-color="#15CF74"/>
<stop offset="0.8" stop-color="#06E775"/>
<stop offset="1" stop-color="#00F076"/>
</linearGradient>
</defs>
</svg>
