<svg width="75" height="73" viewBox="0 0 75 73" fill="none" xmlns="http://www.w3.org/2000/svg">
<path d="M47.2453 8.33229C46.8375 8.1143 46.3906 7.97898 45.9303 7.93411C45.47 7.88924 45.0054 7.9357 44.5631 8.07081C44.1208 8.20593 43.7095 8.42705 43.3529 8.72148C42.9962 9.01592 42.7012 9.37787 42.4848 9.78658C42.2683 10.1939 42.1341 10.6398 42.09 11.099C42.046 11.5581 42.0928 12.0215 42.2278 12.4625C42.3629 12.9036 42.5835 13.3137 42.8772 13.6694C43.1708 14.0252 43.5316 14.3195 43.9391 14.5358C44.7599 14.955 45.7126 15.0351 46.5919 14.7588C47.4712 14.4825 48.2068 13.872 48.6403 13.0586C49.0738 12.2452 49.1705 11.2941 48.9096 10.4101C48.6487 9.52608 48.051 8.77992 47.2453 8.33229ZM60.3453 26.3178L52.0627 2.51512C51.8796 1.97608 51.4982 1.52695 50.996 1.25894C50.4937 0.990937 49.9083 0.924165 49.3586 1.07219L25.0219 7.52561C24.4084 7.68467 23.8971 8.09369 23.6017 8.63905L1.26468 50.6306C0.685239 51.7327 1.09426 53.0961 2.19634 53.6756L34.8157 71.0248C35.9064 71.6156 37.2812 71.1952 37.872 70.0932L45.2343 56.2433L60.1976 28.1118C60.2999 27.9414 60.3681 27.7482 60.4135 27.5551C60.5044 27.1472 60.4817 26.7155 60.3453 26.3178Z" fill="white"/>
<path opacity="0.1" d="M60.4126 27.5555C60.3671 27.7486 60.299 27.9418 60.1967 28.1122L45.2334 56.2437L44.0404 55.5506C43.6436 55.3214 43.3139 54.9918 43.0846 54.595C42.8553 54.1981 42.7343 53.748 42.7338 53.2897V50.472C42.7338 50.0175 42.6202 49.5744 42.393 49.1767L40.9841 46.734C40.5183 45.9273 40.5183 44.9388 40.9841 44.1322L42.393 41.6894C42.6202 41.3031 42.7338 40.8486 42.7338 40.3942V37.5765C42.7338 36.6448 43.2337 35.7927 44.0404 35.3269L46.4718 33.918C46.8695 33.6908 47.199 33.3613 47.4262 32.9637L48.835 30.5209C49.3009 29.7142 50.1644 29.2257 51.096 29.2257H53.9023C54.3682 29.2257 54.8113 29.1007 55.2089 28.8735L57.6517 27.4646C58.4584 26.9988 59.4468 26.9988 60.2535 27.4646L60.4126 27.5555Z" fill="#FE3400"/>
<path d="M50.9261 33.317L42.4389 49.2687L35.0197 63.2209C34.6448 63.9253 33.7699 64.1866 33.0655 63.8117L9.16058 51.098C8.99341 51.0085 8.8455 50.887 8.72533 50.7403C8.60515 50.5937 8.51505 50.4248 8.46018 50.2433C8.40531 50.0618 8.38675 49.8713 8.40555 49.6826C8.42436 49.4939 8.48016 49.3108 8.56977 49.1438L24.4647 19.2398C24.851 18.5354 25.7259 18.2741 26.4303 18.649L48.8128 30.5561L50.3239 31.3627C51.0397 31.7365 51.301 32.6125 50.9261 33.317Z" fill="#FE3400"/>
<path opacity="0.6" d="M50.9256 33.3166L42.4384 49.2683C42.4271 49.2342 42.4043 49.2115 42.393 49.1774L40.9841 46.7347C40.5183 45.928 40.5183 44.9395 40.9841 44.1329L42.393 41.6901C42.6202 41.3038 42.7338 40.8493 42.7338 40.3949V37.5772C42.7338 36.6455 43.2337 35.7934 44.0404 35.3276L46.4718 33.9187C46.8695 33.6915 47.199 33.362 47.4262 32.9643L48.8123 30.5557L50.3234 31.3623C51.0392 31.7361 51.3005 32.6121 50.9256 33.3166Z" fill="#E82F00"/>
<path d="M60.0205 30.6766L62.0224 31.832C62.3473 32.0195 62.7166 32.1184 63.0915 32.1184H65.4036C66.1683 32.1184 66.8738 32.5262 67.2567 33.1875L68.4122 35.1894C68.5997 35.5144 68.8701 35.7848 69.195 35.9722L71.1969 37.1277C71.8593 37.5095 72.2661 38.2162 72.2661 38.9808V41.2929C72.2661 41.669 72.3649 42.0371 72.5524 42.362L73.7079 44.364C74.0896 45.0263 74.0896 45.841 73.7079 46.5034L72.5524 48.5053C72.3649 48.8304 72.2661 49.1991 72.2661 49.5744V51.8865C72.2661 52.6512 71.8582 53.3567 71.1969 53.7396L69.195 54.8951C68.8699 55.0828 68.5999 55.3528 68.4122 55.6779L67.2567 57.6798C67.069 58.0052 66.7989 58.2753 66.4736 58.463C66.1483 58.6507 65.7792 58.7493 65.4036 58.749H63.0915C62.7154 58.749 62.3473 58.8478 62.0224 59.0353L60.0205 60.1908C59.3581 60.5725 58.5434 60.5725 57.8811 60.1908L55.8791 59.0353C55.554 58.8478 55.1853 58.749 54.81 58.749H52.4979C52.1224 58.7488 51.7535 58.65 51.4283 58.4624C51.1031 58.2747 50.8329 58.0048 50.6448 57.6798L49.4893 55.6779C49.3016 55.3528 49.0316 55.0828 48.7065 54.8951L46.7035 53.7407C46.3781 53.5531 46.108 53.2829 45.9203 52.9576C45.7326 52.6323 45.634 52.2632 45.6343 51.8877V49.5756C45.6343 49.1995 45.5355 48.8314 45.348 48.5064L44.1925 46.5045C44.005 46.1792 43.9062 45.8103 43.9062 45.4348C43.9062 45.0593 44.005 44.6904 44.1925 44.3651L45.348 42.3632C45.5355 42.0382 45.6343 41.669 45.6343 41.294V38.9819C45.6343 38.2173 46.0422 37.5117 46.7035 37.1289L48.7054 35.9734C49.0303 35.7859 49.3007 35.5155 49.4882 35.1906L50.6437 33.1886C50.8314 32.8633 51.1015 32.5932 51.4268 32.4055C51.7521 32.2178 52.1212 32.1192 52.4968 32.1195H54.8089C55.1849 32.1195 55.5531 32.0206 55.878 31.8332L57.8799 30.6777C58.2051 30.4892 58.5742 30.3898 58.95 30.3896C59.3259 30.3894 59.6951 30.4884 60.0205 30.6766Z" fill="#0269B8"/>
<path d="M69.1049 47.8398C70.4287 42.2336 66.9571 36.6158 61.351 35.292C55.7448 33.9682 50.127 37.4398 48.8032 43.0459C47.4794 48.6521 50.9509 54.2699 56.5571 55.5937C62.1633 56.9175 67.7811 53.446 69.1049 47.8398Z" fill="white"/>
<path d="M55.688 58.9477L51.5524 69.4515C51.4816 69.6314 51.367 69.7907 51.2191 69.9151C51.0711 70.0395 50.8944 70.1249 50.7051 70.1638C50.5157 70.2026 50.3197 70.1935 50.1347 70.1374C49.9498 70.0813 49.7817 69.9798 49.6459 69.8424L44.6456 64.7796C44.4411 64.5726 44.3218 64.2964 44.3113 64.0056C44.3008 63.7148 44.3998 63.4307 44.5888 63.2094L50.1083 56.7446L50.64 57.6854C51.0116 58.3432 51.7092 58.75 52.4647 58.75H54.8098C55.1063 58.75 55.4165 58.8125 55.688 58.9477Z" fill="white"/>
<path d="M55.6875 58.9478L51.5518 69.446C51.3928 69.8664 51.0292 70.1163 50.6315 70.1731L54.2105 61.0724C53.9378 60.9361 53.631 60.8793 53.3356 60.8793H50.9837C50.2339 60.8793 49.5295 60.4703 49.1659 59.8113L48.6319 58.8796L44.3145 63.9242C44.3258 63.6743 44.4167 63.4129 44.5871 63.2084L50.1089 56.7437L50.6429 57.6867C51.0178 58.3456 51.7109 58.7547 52.4608 58.7547H54.8126C55.108 58.7558 55.4148 58.8126 55.6875 58.9478Z" fill="#E6E6EF"/>
<path d="M73.2627 64.7806L68.2511 69.8456C68.1152 69.9831 67.9471 70.0844 67.7621 70.1405C67.577 70.1965 67.381 70.2055 67.1916 70.1665C67.0022 70.1276 66.8256 70.042 66.6777 69.9175C66.5298 69.793 66.4153 69.6336 66.3446 69.4536L62.209 58.9486C62.4817 58.8123 62.7907 58.7509 63.0872 58.7509H65.4118C66.1731 58.7509 66.8764 58.3453 67.257 57.6864L67.8012 56.7456L73.3196 63.2093C73.5091 63.4305 73.6085 63.7149 73.598 64.006C73.5875 64.2971 73.4678 64.5736 73.2627 64.7806Z" fill="white"/>
<path d="M73.6047 64.0047L69.1055 58.7443L68.5602 59.6873C68.1852 60.3463 67.4808 60.7439 66.7196 60.7439H64.3904C64.095 60.7439 63.7883 60.8121 63.5156 60.9484L67.1399 70.1628C66.7991 70.0719 66.4923 69.8219 66.3446 69.4583L62.209 58.9488C62.4817 58.8125 62.7884 58.7556 63.0838 58.7556H65.413C66.1742 58.7556 66.8786 58.3466 67.2536 57.6876L67.7989 56.7446L73.3207 63.2094C73.5252 63.4366 73.6161 63.7207 73.6047 64.0047Z" fill="#E6E6EF"/>
<path d="M59.8472 41.1724L60.7823 43.0675C60.8277 43.1595 60.9163 43.2243 61.0186 43.2391L63.1091 43.5424C63.294 43.569 63.4677 43.6469 63.6106 43.7672C63.7535 43.8875 63.8598 44.0455 63.9176 44.2231C63.9753 44.4007 63.9821 44.591 63.9372 44.7723C63.8923 44.9536 63.7975 45.1187 63.6636 45.2489L62.1502 46.7237C62.1138 46.7591 62.0865 46.8028 62.0709 46.8512C62.0553 46.8995 62.0517 46.9509 62.0605 47.0009L62.4172 49.0835C62.449 49.2676 62.4286 49.4569 62.3583 49.63C62.288 49.803 62.1706 49.953 62.0194 50.0627C61.8683 50.1725 61.6894 50.2377 61.5031 50.251C61.3167 50.2643 61.1304 50.2251 60.9652 50.1379L59.0951 49.1551C59.05 49.1316 58.9999 49.1193 58.9491 49.1193C58.8982 49.1193 58.8481 49.1316 58.8031 49.1551L56.9329 50.1379C56.7677 50.2251 56.5814 50.2643 56.3951 50.251C56.2087 50.2377 56.0298 50.1725 55.8787 50.0627C55.7275 49.953 55.6101 49.803 55.5398 49.63C55.4695 49.4569 55.4491 49.2676 55.4809 49.0835L55.8377 47.0009C55.8463 46.9509 55.8426 46.8995 55.8269 46.8512C55.8113 46.803 55.7842 46.7592 55.7479 46.7237L54.2345 45.2489C54.1006 45.1187 54.0058 44.9536 53.9609 44.7723C53.9161 44.591 53.9229 44.4007 53.9806 44.2231C54.0383 44.0455 54.1446 43.8875 54.2875 43.7672C54.4304 43.6469 54.6041 43.569 54.789 43.5424L56.8795 43.2391C56.9299 43.2317 56.9776 43.2122 57.0188 43.1824C57.06 43.1525 57.0933 43.1131 57.1159 43.0675L58.0509 41.1724C58.1338 41.005 58.2618 40.864 58.4205 40.7655C58.5792 40.667 58.7623 40.6147 58.9491 40.6147C59.1359 40.6147 59.3189 40.667 59.4776 40.7655C59.6363 40.864 59.7643 41.005 59.8472 41.1724Z" fill="#FE3400"/>
<path d="M68.838 56.6457L69.1482 56.1072C69.2629 55.9106 69.4265 55.747 69.6208 55.6345L71.6239 54.4779C72.0779 54.2147 72.455 53.8369 72.7174 53.3823C72.9798 52.9278 73.1183 52.4123 73.1191 51.8874V49.5765C73.1191 49.3504 73.1793 49.1277 73.2906 48.9334L74.4472 46.9303C74.709 46.4753 74.8468 45.9595 74.8468 45.4346C74.8468 44.9096 74.709 44.3938 74.4472 43.9388L73.2906 41.9369C73.1781 41.7413 73.1189 41.5195 73.1191 41.2938V38.9817C73.1183 38.4569 72.9798 37.9414 72.7174 37.4868C72.455 37.0322 72.0779 36.6545 71.6239 36.3913L69.6219 35.2369C69.4267 35.1223 69.2639 34.9596 69.1493 34.7643L67.9938 32.7601C67.7303 32.3064 67.3524 31.9296 66.8979 31.6675C66.4434 31.4053 65.9281 31.2669 65.4034 31.266H63.0913C62.8652 31.266 62.6425 31.2058 62.4482 31.0945L60.4463 29.9378C60.3815 29.9003 60.3077 29.8856 60.2406 29.8538L60.9553 28.5097C61.1549 28.1319 61.2749 27.7171 61.3078 27.2911C61.3406 26.865 61.2856 26.4368 61.1461 26.0328L61.145 26.0317L58.8056 19.3045C63.3151 20.4361 71.0297 21.011 72.3828 16.881C73.9326 12.1489 65.484 7.64739 60.678 6.07152C58.3012 5.29325 55.9118 4.81606 53.7111 4.65359L52.8726 2.24151C52.6164 1.49839 52.0884 0.879802 51.3947 0.5101C50.7011 0.140399 49.8932 0.0469967 49.1335 0.248671L24.799 6.69982C24.3861 6.80965 24.0002 7.00318 23.6652 7.26841C23.3302 7.53363 23.0533 7.86488 22.8517 8.2416L0.516892 50.2298C0.131059 50.9573 0.0494197 51.8081 0.289872 52.5957C0.530324 53.3833 1.07325 54.0434 1.79962 54.4313L34.4099 71.7772C34.7703 71.9698 35.1651 72.0896 35.5717 72.1296C35.9784 72.1696 36.389 72.1291 36.78 72.0104C37.171 71.8917 37.5348 71.6971 37.8506 71.4378C38.1664 71.1785 38.428 70.8594 38.6205 70.499L46.9395 54.8608L48.2791 55.6345C48.4745 55.7481 48.637 55.9106 48.7506 56.106L49.0664 56.6525L43.9412 62.6572C43.6109 63.0395 43.4374 63.5327 43.4558 64.0377C43.4741 64.5427 43.6828 65.022 44.04 65.3794L49.0403 70.441C50.0617 71.4738 51.8125 71.1182 52.3465 69.7627L56.1254 60.1633L57.4536 60.9302C57.9086 61.1926 58.4247 61.3308 58.9499 61.3308C59.4752 61.3308 59.9912 61.1926 60.4463 60.9302L61.7722 60.1644L65.5511 69.7639C65.6736 70.0758 65.8721 70.3521 66.1286 70.5679C66.385 70.7837 66.6912 70.932 67.0194 70.9995C67.3477 71.067 67.6876 71.0515 68.0083 70.9543C68.3291 70.8572 68.6205 70.6816 68.8562 70.4433L73.8678 65.3794C74.6097 64.6307 74.6518 63.4593 73.9678 62.656L68.838 56.6457ZM60.1486 7.69283C63.8298 8.89944 71.8716 12.9703 70.7638 16.3516C69.7106 19.5635 61.4881 18.3296 58.1273 17.3525L54.3257 6.41806C56.1834 6.61802 58.1671 7.04295 60.1486 7.69283ZM37.1162 69.698C37.0289 69.8609 36.9104 70.005 36.7674 70.1221C36.6243 70.2392 36.4596 70.3269 36.2827 70.3803C36.1057 70.4337 35.92 70.4517 35.7361 70.4333C35.5522 70.4148 35.3737 70.3603 35.2109 70.2729L2.60062 52.927C2.27254 52.7522 2.02725 52.4543 1.91861 52.0988C1.80997 51.7432 1.84686 51.3591 2.02118 51.0308L24.3559 9.0426C24.5377 8.69948 24.8581 8.44611 25.2353 8.34613L49.5686 1.89725C49.9123 1.80254 50.2793 1.84301 50.5941 2.01035C50.9089 2.17769 51.1477 2.4592 51.2615 2.79709L56.0902 16.6845C53.3998 15.7039 51.1751 14.4848 49.5413 13.2385C50.49 11.1536 49.6834 8.66312 47.6405 7.57581C45.6591 6.52031 42.9129 7.17247 41.7336 9.38913C41.4638 9.89495 41.2965 10.449 41.2411 11.0196C41.1857 11.5902 41.2434 12.1661 41.4109 12.7143C41.5784 13.2626 41.8524 13.7724 42.2171 14.2146C42.5819 14.6569 43.0303 15.0228 43.5367 15.2915C44.3406 15.719 45.2584 15.8835 46.1608 15.7619C47.0631 15.6402 47.9046 15.2384 48.5665 14.6132C50.5389 16.1198 53.2611 17.5945 56.7992 18.7261L59.5339 26.5918C59.597 26.7741 59.622 26.9674 59.6073 27.1597C59.5927 27.352 59.5387 27.5392 59.4487 27.7098L58.4409 29.6038C58.0941 29.655 57.7593 29.7682 57.4525 29.9378L55.4494 31.0945C55.2538 31.207 55.032 31.2661 54.8063 31.266H52.4976C51.9728 31.2668 51.4573 31.4053 51.0028 31.6677C50.5482 31.9301 50.1704 32.3071 49.9072 32.7612L48.7506 34.7643C48.6369 34.9597 48.4745 35.1222 48.2791 35.2358L46.2771 36.3913C45.8229 36.6543 45.4457 37.032 45.1833 37.4866C44.9209 37.9413 44.7825 38.4568 44.7819 38.9817V41.2938C44.7819 41.5188 44.7217 41.7415 44.6092 41.9369L43.4538 43.9388C43.1914 44.3937 43.0533 44.9095 43.0533 45.4346C43.0533 45.9597 43.1914 46.4755 43.4538 46.9303L44.6104 48.9345C44.7229 49.13 44.7819 49.3515 44.7819 49.5765V51.8874C44.7819 52.6248 45.0705 53.3156 45.5443 53.8541L37.1162 69.698ZM46.8407 9.08009C47.9303 9.65954 48.4415 10.898 48.1666 12.05C47.0145 10.9059 46.401 9.80497 46.4021 8.9108C46.5509 8.95852 46.6998 9.00511 46.8407 9.08009ZM47.2565 13.5077C46.8508 13.8345 46.3581 14.0351 45.8394 14.0846C45.3208 14.1341 44.799 14.0303 44.3388 13.7861C44.03 13.6226 43.7565 13.3997 43.534 13.1302C43.3115 12.8608 43.1443 12.5501 43.0421 12.2159C42.94 11.8817 42.9048 11.5306 42.9385 11.1828C42.9723 10.835 43.0744 10.4973 43.239 10.189C43.5571 9.59023 44.0787 9.15167 44.7081 8.92898C44.7274 10.3901 45.6443 11.983 47.2565 13.5077ZM50.7604 69.1401C50.7416 69.188 50.711 69.2305 50.6716 69.2636C50.6321 69.2967 50.585 69.3194 50.5346 69.3297C50.4841 69.3399 50.4319 69.3374 50.3826 69.3224C50.3334 69.3073 50.2887 69.2802 50.2526 69.2435L45.2534 64.1819C45.1984 64.1272 45.1661 64.0536 45.1631 63.976C45.1602 63.8984 45.1868 63.8225 45.2375 63.7638L49.9685 58.2227C50.2342 58.6448 50.6025 58.9928 51.039 59.2342C51.4754 59.4756 51.9659 59.6025 52.4647 59.6031H52.4897L52.4976 59.6043H54.5143L50.7604 69.1401ZM59.5941 59.4554C59.1965 59.6849 58.7045 59.6838 58.3069 59.4554L56.3049 58.3C55.8469 58.0467 55.3341 57.9087 54.8109 57.8978H52.4908C52.2665 57.8963 52.0464 57.8363 51.8523 57.7237C51.6582 57.6111 51.4969 57.4498 51.3842 57.2558L50.2276 55.2539C49.9648 54.7991 49.5871 54.4214 49.1323 54.1586L47.1293 53.002C46.934 52.8888 46.7719 52.7262 46.6593 52.5306C46.5466 52.3349 46.4873 52.1132 46.4873 51.8874V49.5765C46.4873 49.0504 46.3487 48.5335 46.0851 48.0813L44.9296 46.0771C44.8169 45.8815 44.7575 45.6597 44.7575 45.434C44.7575 45.2083 44.8169 44.9865 44.9296 44.7909L46.084 42.7901C46.3476 42.3368 46.4862 41.8199 46.4862 41.2938V38.9817C46.4862 38.5238 46.7327 38.0966 47.1293 37.8671L49.1323 36.7105C49.5868 36.4481 49.9651 36.0686 50.2264 35.6164L51.3831 33.6133C51.6126 33.2157 52.0398 32.9703 52.4976 32.9703H54.8086C55.3336 32.9702 55.8493 32.8319 56.3038 32.5692L58.3069 31.4126C58.7045 31.1853 59.1965 31.1842 59.5941 31.4126L61.5961 32.5692C62.0494 32.8305 62.5663 32.9703 63.0913 32.9703H65.4034C65.8612 32.9703 66.2884 33.2179 66.5179 33.6133L67.6746 35.6175C67.9359 36.0697 68.3142 36.4481 68.7687 36.7117L70.7706 37.8671C71.1683 38.0966 71.4148 38.5238 71.4148 38.9817V41.2938C71.4148 41.8187 71.5534 42.3357 71.8159 42.789L72.9725 44.7898C73.2009 45.1886 73.2009 45.6817 72.9725 46.0782L71.8159 48.0813C71.5537 48.536 71.4154 49.0516 71.4148 49.5765V51.8874C71.4148 52.3453 71.1683 52.7725 70.7717 53.002L68.7687 54.1586C68.3144 54.422 67.9368 54.7996 67.6734 55.2539L66.5179 57.2558C66.4053 57.4502 66.2439 57.6117 66.0495 57.7243C65.8552 57.8369 65.6348 57.8967 65.4102 57.8978H63.0867C62.5643 57.9095 62.0525 58.0475 61.5949 58.3L59.5941 59.4554ZM72.6566 64.1819L67.645 69.2458C67.6091 69.2828 67.5644 69.3101 67.5151 69.3253C67.4658 69.3404 67.4135 69.3429 67.363 69.3325C67.3125 69.3221 67.2654 69.2991 67.2261 69.2657C67.1869 69.2322 67.1566 69.1895 67.1383 69.1413L63.3844 59.6031H65.4045C65.4125 59.6031 65.4193 59.5997 65.4272 59.5997C65.8469 59.5943 66.2607 59.5001 66.6414 59.3233C67.0221 59.1464 67.361 58.891 67.6359 58.5738C67.7393 58.4567 67.8507 58.3465 67.9347 58.2125L72.6726 63.7615C72.7235 63.8206 72.7501 63.8969 72.7472 63.9748C72.7442 64.0528 72.7119 64.1268 72.6566 64.1819Z" fill="black" fill-opacity="0.8"/>
<path d="M63.2591 48.9404L62.9501 47.1373L64.2601 45.8591C64.5085 45.6185 64.6842 45.3129 64.7671 44.9772C64.8501 44.6415 64.837 44.2892 64.7293 43.9606C64.6238 43.6311 64.4276 43.338 64.1631 43.115C63.8987 42.8919 63.5767 42.7479 63.2341 42.6995L61.422 42.437L60.613 40.7964C60.4613 40.4857 60.2251 40.224 59.9315 40.0414C59.6379 39.8587 59.2988 39.7625 58.9531 39.7636C58.243 39.7636 57.6044 40.1601 57.2897 40.7964L56.4808 42.437L54.6686 42.6995C54.326 42.7482 54.004 42.8925 53.7396 43.1158C53.4752 43.339 53.279 43.6322 53.1734 43.9617C53.0658 44.2902 53.0528 44.6423 53.1357 44.9778C53.2187 45.3133 53.3944 45.6187 53.6426 45.8591L54.9526 47.1373L54.6436 48.9404C54.3845 50.4515 55.9695 51.6047 57.3318 50.8935L58.9519 50.0425L60.571 50.8935C61.9423 51.6093 63.5182 50.4402 63.2591 48.9404ZM61.5197 49.3722C61.498 49.3902 61.4712 49.4009 61.4431 49.403C61.415 49.405 61.3869 49.3982 61.3629 49.3835L59.4928 48.4007C59.3255 48.3131 59.1396 48.2674 58.9508 48.2674C58.762 48.2674 58.5761 48.3131 58.4089 48.4007L56.5387 49.3835C56.5171 49.3949 56.4569 49.4267 56.3808 49.3722C56.3069 49.3176 56.3183 49.2506 56.3217 49.2279L56.6785 47.1475C56.7107 46.9609 56.697 46.7693 56.6386 46.5892C56.5802 46.4091 56.4789 46.2458 56.3433 46.1136L54.8299 44.6378C54.809 44.6194 54.7942 44.5951 54.7875 44.5681C54.7808 44.5411 54.7825 44.5126 54.7924 44.4866C54.8208 44.398 54.8901 44.3878 54.9117 44.3844L57 44.0799C57.3806 44.0265 57.7101 43.7879 57.8805 43.4425L58.8156 41.5474C58.8258 41.5269 58.8554 41.4644 58.9485 41.4644C59.0406 41.4656 59.0701 41.5269 59.0803 41.5462L60.0154 43.4425C60.1858 43.7879 60.5153 44.0265 60.8936 44.0799L62.9842 44.3844C63.0121 44.387 63.0384 44.3981 63.0598 44.4161C63.0811 44.4342 63.0964 44.4585 63.1035 44.4855C63.1308 44.573 63.0819 44.6218 63.066 44.6378L61.5549 46.1125C61.2822 46.3772 61.155 46.7612 61.2175 47.1453L61.5742 49.229C61.5833 49.2517 61.5947 49.3188 61.5197 49.3722ZM28.0334 43.4243C28.2186 43.5537 28.4476 43.6042 28.67 43.5648C28.8924 43.5254 29.0901 43.3992 29.2196 43.2141L36.6035 32.6523C36.6713 32.5608 36.72 32.4567 36.7468 32.346C36.7737 32.2354 36.778 32.1204 36.7597 32.0081C36.7414 31.8957 36.7007 31.7881 36.6401 31.6917C36.5795 31.5953 36.5002 31.5121 36.4069 31.4468C36.3135 31.3816 36.2081 31.3358 36.0967 31.312C35.9854 31.2882 35.8704 31.2869 35.7586 31.3083C35.6467 31.3297 35.5403 31.3733 35.4456 31.4365C35.3509 31.4997 35.2698 31.5813 35.2072 31.6764L27.8232 42.2382C27.6939 42.4234 27.6434 42.6523 27.6828 42.8748C27.7222 43.0972 27.8483 43.2949 28.0334 43.4243ZM37.3682 36.9698C36.4836 37.0879 35.6821 37.5524 35.1399 38.2612C34.5977 38.97 34.3592 39.8651 34.4766 40.7498C34.5969 41.6319 35.0622 42.4304 35.7704 42.9699C36.4787 43.5094 37.372 43.746 38.2544 43.6277C38.6911 43.5705 39.1123 43.4276 39.4936 43.2072C39.875 42.9868 40.209 42.6932 40.4767 42.3434C40.7443 41.9935 40.9402 41.5943 41.0531 41.1685C41.166 40.7428 41.1937 40.2989 41.1346 39.8624C41.0776 39.425 40.9349 39.0032 40.7147 38.621C40.4945 38.2388 40.201 37.9038 39.8512 37.6351C39.5014 37.3664 39.102 37.1694 38.6759 37.0552C38.2499 36.941 37.8055 36.912 37.3682 36.9698ZM39.4462 40.0885C39.4754 40.3033 39.4619 40.5216 39.4064 40.7311C39.351 40.9406 39.2546 41.137 39.123 41.3092C38.9913 41.4813 38.8269 41.6256 38.6392 41.734C38.4516 41.8423 38.2443 41.9125 38.0294 41.9405C37.5946 41.9994 37.1541 41.8834 36.8046 41.618C36.4551 41.3527 36.2251 40.9595 36.165 40.5248C36.1081 40.0883 36.2265 39.6469 36.4941 39.2973C36.7617 38.9477 37.1569 38.7183 37.5931 38.6592C38.0284 38.6032 38.4681 38.7223 38.8156 38.9903C39.163 39.2583 39.3899 39.6533 39.4462 40.0885C39.4462 40.0874 39.4462 40.0874 39.4462 40.0885ZM27.4676 37.4401C28.3486 37.322 29.1467 36.8592 29.6869 36.1533C30.2271 35.4474 30.4652 34.5561 30.3489 33.6749C30.2915 33.2376 30.1485 32.8148 29.9281 32.4328C29.7077 32.0508 29.4141 31.7159 29.0643 31.4474C28.7144 31.1789 28.315 30.9819 27.889 30.8678C27.463 30.7537 27.0187 30.7246 26.5814 30.7822C25.6969 30.9003 24.8954 31.3649 24.3532 32.0737C23.811 32.7825 23.5724 33.6776 23.6899 34.5622C23.7487 34.9993 23.8932 35.4206 24.1149 35.8018C24.3367 36.1831 24.6314 36.5169 24.9822 36.7842C25.3331 37.0515 25.7332 37.247 26.1596 37.3595C26.5861 37.4721 27.0306 37.4995 27.4676 37.4401ZM26.8064 32.4706C27.2416 32.4151 27.6811 32.5344 28.0287 32.8023C28.3762 33.0702 28.6034 33.4648 28.6606 33.8998C28.7185 34.3351 28.601 34.7755 28.3342 35.1242C28.0673 35.4729 27.6728 35.7013 27.2376 35.7592C26.8023 35.817 26.3619 35.6996 26.0132 35.4327C25.6645 35.1659 25.4361 34.7714 25.3782 34.3361C25.3217 33.8996 25.4401 33.4584 25.7077 33.1089C25.9753 32.7594 26.3702 32.5299 26.8064 32.4706ZM35.6764 52.141L17.5773 43.1857C17.4769 43.1351 17.3675 43.1049 17.2554 43.0967C17.1433 43.0886 17.0307 43.1027 16.9241 43.1383C16.8175 43.1738 16.7189 43.2301 16.6342 43.3039C16.5494 43.3777 16.48 43.4676 16.4301 43.5683C16.3802 43.669 16.3507 43.7786 16.3434 43.8907C16.336 44.0029 16.3509 44.1154 16.3872 44.2218C16.4235 44.3281 16.4805 44.4263 16.5548 44.5106C16.6292 44.5948 16.7196 44.6635 16.8206 44.7127L34.9197 53.668C35.1204 53.7547 35.3467 53.7612 35.552 53.6859C35.7572 53.6107 35.9258 53.4595 36.0228 53.2636C36.1199 53.0678 36.1381 52.8421 36.0736 52.6332C36.0092 52.4243 35.867 52.2481 35.6764 52.141ZM28.3436 53.9736L14.8471 47.2952C14.7467 47.2446 14.6373 47.2144 14.5252 47.2063C14.4131 47.1981 14.3005 47.2122 14.1939 47.2478C14.0873 47.2833 13.9887 47.3396 13.904 47.4134C13.8192 47.4872 13.7498 47.5771 13.6999 47.6778C13.65 47.7785 13.6205 47.8881 13.6132 48.0002C13.6058 48.1124 13.6207 48.2249 13.657 48.3313C13.6933 48.4377 13.7502 48.5358 13.8246 48.6201C13.899 48.7043 13.9893 48.7731 14.0904 48.8223L27.5869 55.5006C27.7876 55.5874 28.0139 55.5938 28.2191 55.5186C28.4244 55.4433 28.5929 55.2922 28.69 55.0963C28.7871 54.9004 28.8053 54.6747 28.7408 54.4658C28.6763 54.257 28.5342 54.0808 28.3436 53.9736Z" fill="white"/>
</svg>
