<svg width="21" height="21" viewBox="0 0 21 21" fill="none" xmlns="http://www.w3.org/2000/svg">
<path d="M10.47 16.8861L5.39454 19.9436C5.17032 20.0863 4.93591 20.1474 4.69131 20.127C4.4467 20.1067 4.23268 20.0251 4.04923 19.8824C3.86577 19.7398 3.72309 19.5612 3.62117 19.3468C3.51926 19.1323 3.49887 18.893 3.56002 18.6289L4.90533 12.8501L0.410779 8.96709C0.206945 8.78364 0.0797509 8.57451 0.0292 8.33969C-0.021351 8.10487 -0.00626634 7.87576 0.0744522 7.65236C0.155986 7.42814 0.278285 7.24469 0.441353 7.102C0.60442 6.95932 0.828638 6.8676 1.11401 6.82683L7.0456 6.30705L9.33874 0.864665C9.44065 0.620063 9.59883 0.436611 9.81326 0.314311C10.0277 0.19201 10.2466 0.130859 10.47 0.130859C10.6942 0.130859 10.9132 0.19201 11.1268 0.314311C11.3404 0.436611 11.4986 0.620063 11.6013 0.864665L13.8944 6.30705L19.826 6.82683C20.1114 6.8676 20.3356 6.95932 20.4987 7.102C20.6617 7.24469 20.784 7.42814 20.8656 7.65236C20.9471 7.87658 20.9626 8.10609 20.9121 8.34091C20.8615 8.57573 20.7339 8.78446 20.5293 8.96709L16.0347 12.8501L17.38 18.6289C17.4412 18.8938 17.4208 19.1335 17.3189 19.348C17.2169 19.5624 17.0743 19.7406 16.8908 19.8824C16.7074 20.0251 16.4933 20.1067 16.2487 20.127C16.0041 20.1474 15.7697 20.0863 15.5455 19.9436L10.47 16.8861Z" fill="white"/>
</svg>
