<svg width="48" height="48" viewBox="0 0 48 48" fill="none" xmlns="http://www.w3.org/2000/svg">
<path d="M29.5391 18H36.0006V24.4615" stroke="white" stroke-width="2" stroke-linecap="round" stroke-linejoin="round"/>
<path d="M12 30.9229L19.0021 23.9207C19.1736 23.7493 19.3771 23.6132 19.6011 23.5204C19.8251 23.4276 20.0652 23.3799 20.3077 23.3799C20.5502 23.3799 20.7903 23.4276 21.0143 23.5204C21.2383 23.6132 21.4418 23.7493 21.6133 23.9207L24.5406 26.848C24.712 27.0195 24.9156 27.1555 25.1396 27.2483C25.3636 27.3412 25.6037 27.3889 25.8462 27.3889C26.0886 27.3889 26.3287 27.3412 26.5527 27.2483C26.7768 27.1555 26.9803 27.0195 27.1517 26.848L35.0769 18.9229" stroke="white" stroke-width="2" stroke-linecap="round" stroke-linejoin="round"/>
</svg>
