<svg width="24" height="24" viewBox="0 0 24 24" fill="none" xmlns="http://www.w3.org/2000/svg">
<path d="M12.0008 20.3251C11.8508 20.3251 11.7008 20.2501 11.5508 20.1751C6.30078 16.5001 3.60078 13.0501 3.30078 9.75014V8.77514C3.60078 5.55014 5.70078 3.90014 7.57578 3.75014C9.90078 3.52514 11.0258 4.27514 12.0008 5.25014C12.9758 4.27514 14.1758 3.52514 16.4258 3.75014C18.3008 3.90014 20.4008 5.55014 20.7008 8.70014V9.67514C20.4758 13.0501 17.7758 16.4251 12.4508 20.1751C12.3008 20.2501 12.1508 20.3251 12.0008 20.3251ZM8.32578 5.17514C8.10078 5.17514 7.87578 5.17514 7.65078 5.17514C6.37578 5.32514 4.95078 6.45014 4.72578 8.77514V9.60014C4.95078 12.2251 7.35078 15.3001 11.9258 18.5251C16.5008 15.2251 18.9008 12.2251 19.1258 9.52514V8.70014C18.9758 6.45014 17.4758 5.25014 16.2008 5.17514C14.4008 5.02514 13.5758 5.47514 12.5258 6.82514C12.3758 6.97514 12.1508 7.12514 11.9258 7.12514C11.7008 7.12514 11.4758 7.05014 11.3258 6.82514C10.4258 5.70014 9.75078 5.17514 8.32578 5.17514Z" fill="#CDCFD0"/>
</svg>
