<svg width="30" height="30" viewBox="0 0 30 30" fill="none" xmlns="http://www.w3.org/2000/svg">
<path d="M20.3259 21.2919C20.7302 20.7025 20.9835 20.0228 21.0637 19.3126C21.0686 19.2718 21.0715 19.2307 21.0726 19.1896L21.0741 19.1644M20.3259 21.2919L20.2848 21.2634M20.3259 21.2919C19.6044 22.3348 18.0919 23.5185 14.7778 23.5185C11.4637 23.5185 9.95111 22.3348 9.22963 21.2919M20.3259 21.2919L20.2847 21.2636C20.2847 21.2635 20.2848 21.2635 20.2848 21.2634M20.2848 21.2634C20.6844 20.6808 20.9348 20.009 21.014 19.307L21.0141 19.3067C21.0187 19.2674 21.0216 19.2279 21.0226 19.1883L21.0227 19.1867L21.0227 19.1867L21.0241 19.163M20.2848 21.2634C19.574 22.2909 18.078 23.4685 14.7778 23.4685C11.4776 23.4685 9.98153 22.2909 9.27075 21.2634M21.0241 19.163V19.1644H21.0741M21.0241 19.163L21.0242 19.1615L21.0741 19.1644M21.0241 19.163V19.0741C21.0241 18.6944 20.8733 18.3303 20.6048 18.0619C20.3363 17.7934 19.9722 17.6426 19.5926 17.6426H9.96296C9.58331 17.6426 9.21921 17.7934 8.95075 18.0619C8.6823 18.3303 8.53148 18.6944 8.53148 19.0741V19.163V19.1875M21.0741 19.1644V19.0741C21.0741 18.6812 20.918 18.3043 20.6402 18.0265C20.3623 17.7487 19.9855 17.5926 19.5926 17.5926H9.96296C9.57005 17.5926 9.19323 17.7487 8.9154 18.0265C8.63757 18.3043 8.48148 18.6812 8.48148 19.0741V19.163V19.1896M8.48148 19.1896L8.5313 19.1854L8.53148 19.1875M8.48148 19.1896L8.49185 19.3126M8.48148 19.1896H8.53148V19.1875M8.53148 19.1875L8.54162 19.3077M8.49185 19.3126L8.54154 19.307C8.54156 19.3072 8.54159 19.3074 8.54162 19.3077M8.49185 19.3126L8.54167 19.3084L8.54162 19.3077M8.49185 19.3126C8.57213 20.0228 8.82546 20.7024 9.22963 21.2919M8.54162 19.3077C8.62105 20.0094 8.87141 20.6809 9.27075 21.2634M9.22963 21.2919L9.27075 21.2634M9.22963 21.2919L9.27087 21.2636C9.27083 21.2635 9.27079 21.2635 9.27075 21.2634M22.4754 20.1401L22.4754 20.1401C22.5417 19.8514 22.5842 19.5578 22.6024 19.2622C22.6056 19.2348 22.6056 19.2136 22.6056 19.1988V19.1985V19.0741C22.6056 18.275 22.2881 17.5086 21.7231 16.9436C21.158 16.3785 20.3917 16.0611 19.5926 16.0611H9.96296C9.16388 16.0611 8.39752 16.3785 7.83248 16.9436C7.26744 17.5086 6.95 18.275 6.95 19.0741V19.1985H6.94997L6.95003 19.2002C6.95306 19.288 6.95907 19.3756 6.96804 19.4629L6.96807 19.4632C7.07361 20.432 7.41755 21.3597 7.96915 22.1631L7.96924 22.1632C9.0185 23.681 11.041 25.05 14.7778 25.05C18.5145 25.05 20.5371 23.681 21.5863 22.1632L21.5863 22.1632C22.0959 21.425 22.3484 20.6898 22.4754 20.1401ZM11.4944 9.81482C11.4944 8.94402 11.8404 8.10889 12.4561 7.49315C13.0719 6.8774 13.907 6.53148 14.7778 6.53148C15.6486 6.53148 16.4837 6.8774 17.0994 7.49315C17.7152 8.10889 18.0611 8.94402 18.0611 9.81482C18.0611 10.6856 17.7152 11.5207 17.0994 12.1365C16.4837 12.7522 15.6486 13.0981 14.7778 13.0981C13.907 13.0981 13.0719 12.7522 12.4561 12.1365C11.8404 11.5207 11.4944 10.6856 11.4944 9.81482ZM14.7778 4.95C13.4875 4.95 12.2502 5.46254 11.3378 6.37487C10.4255 7.2872 9.91296 8.52459 9.91296 9.81482C9.91296 11.105 10.4255 12.3424 11.3378 13.2548C12.2502 14.1671 13.4875 14.6796 14.7778 14.6796C16.068 14.6796 17.3054 14.1671 18.2177 13.2548C19.1301 12.3424 19.6426 11.105 19.6426 9.81482C19.6426 8.52459 19.1301 7.2872 18.2177 6.37487C17.3054 5.46254 16.068 4.95 14.7778 4.95Z" fill="#282828" stroke="#282828" stroke-width="0.1"/>
</svg>
