<svg width="21" height="21" viewBox="0 0 21 21" fill="none" xmlns="http://www.w3.org/2000/svg">
<path d="M4.48161 7.36242C4.48161 6.77738 4.72304 6.21631 5.15279 5.80263C5.58254 5.38894 6.16541 5.15654 6.77316 5.15654C7.38092 5.15654 7.96379 5.38894 8.39354 5.80263C8.82328 6.21631 9.06472 6.77738 9.06472 7.36242C9.06472 7.94746 8.82328 8.50853 8.39354 8.92221C7.96379 9.3359 7.38092 9.5683 6.77316 9.5683C6.16541 9.5683 5.58254 9.3359 5.15279 8.92221C4.72304 8.50853 4.48161 7.94746 4.48161 7.36242ZM6.77316 3.83301C5.80075 3.83301 4.86817 4.20486 4.18057 4.86675C3.49297 5.52864 3.10668 6.42636 3.10668 7.36242C3.10668 8.29848 3.49297 9.1962 4.18057 9.85809C4.86817 10.52 5.80075 10.8918 6.77316 10.8918C7.74557 10.8918 8.67816 10.52 9.36576 9.85809C10.0534 9.1962 10.4396 8.29848 10.4396 7.36242C10.4396 6.42636 10.0534 5.52864 9.36576 4.86675C8.67816 4.20486 7.74557 3.83301 6.77316 3.83301ZM13.6478 8.24477C13.6478 7.89375 13.7927 7.55711 14.0505 7.3089C14.3084 7.06069 14.6581 6.92124 15.0228 6.92124C15.3874 6.92124 15.7371 7.06069 15.995 7.3089C16.2528 7.55711 16.3977 7.89375 16.3977 8.24477C16.3977 8.59579 16.2528 8.93244 15.995 9.18065C15.7371 9.42886 15.3874 9.5683 15.0228 9.5683C14.6581 9.5683 14.3084 9.42886 14.0505 9.18065C13.7927 8.93244 13.6478 8.59579 13.6478 8.24477ZM15.0228 5.59771C14.2934 5.59771 13.594 5.8766 13.0783 6.37302C12.5626 6.86944 12.2729 7.54273 12.2729 8.24477C12.2729 8.94682 12.5626 9.62011 13.0783 10.1165C13.594 10.6129 14.2934 10.8918 15.0228 10.8918C15.7521 10.8918 16.4515 10.6129 16.9672 10.1165C17.4829 9.62011 17.7726 8.94682 17.7726 8.24477C17.7726 7.54273 17.4829 6.86944 16.9672 6.37302C16.4515 5.8766 15.7521 5.59771 15.0228 5.59771ZM12.5002 17.1018C13.1446 17.3533 13.9705 17.5095 15.0237 17.5095C17.1154 17.5095 18.3107 16.8945 18.9624 16.1348C19.2786 15.7659 19.439 15.3936 19.5215 15.1086C19.5685 14.9435 19.5971 14.774 19.6068 14.603V14.5792C19.6068 14.3267 19.5551 14.0767 19.4547 13.8434C19.3544 13.6102 19.2072 13.3982 19.0218 13.2197C18.8363 13.0411 18.6161 12.8995 18.3738 12.8029C18.1315 12.7063 17.8717 12.6565 17.6095 12.6565H12.4379C12.4122 12.6565 12.3875 12.6565 12.3627 12.6583C12.7239 13.0201 12.986 13.4745 13.1107 13.9801H17.6095C17.9504 13.9801 18.2273 14.2439 18.2318 14.5704C18.2253 14.6336 18.213 14.6962 18.1952 14.7574C18.1385 14.9536 18.0385 15.1358 17.9019 15.2912C17.581 15.6671 16.8276 16.1859 15.0237 16.1859C14.1254 16.1859 13.4874 16.0571 13.0346 15.8815C12.9356 16.2345 12.7724 16.6607 12.5002 17.1018ZM3.33583 12.6565C2.78885 12.6565 2.26427 12.8657 1.8775 13.238C1.49073 13.6103 1.27344 14.1153 1.27344 14.6418V14.8871C1.27451 14.9485 1.2788 15.0097 1.28627 15.0707C1.36196 15.7272 1.60712 16.3551 1.9994 16.8971C2.7492 17.9277 4.18096 18.833 6.77316 18.833C9.36537 18.833 10.7971 17.9286 11.5469 16.8962C11.9393 16.3543 12.1845 15.7264 12.2601 15.0698C12.2665 15.0091 12.2708 14.9481 12.2729 14.8871V14.6418C12.2729 14.1153 12.0556 13.6103 11.6688 13.238C11.2821 12.8657 10.7575 12.6565 10.2105 12.6565H3.33583ZM2.64837 14.8686V14.6418C2.64837 14.4663 2.7208 14.298 2.84972 14.1739C2.97865 14.0498 3.15351 13.9801 3.33583 13.9801H10.2105C10.3928 13.9801 10.5677 14.0498 10.6966 14.1739C10.8255 14.298 10.898 14.4663 10.898 14.6418V14.8686L10.8915 14.9392C10.8393 15.3698 10.6775 15.7814 10.4204 16.1374C9.9685 16.7595 8.99322 17.5095 6.77316 17.5095C4.55311 17.5095 3.57782 16.7595 3.12501 16.1374C2.86826 15.7813 2.70675 15.3698 2.65479 14.9392C2.652 14.9157 2.64986 14.8922 2.64837 14.8686Z" fill="#FF3500"/>
</svg>
