<svg width="16" height="17" viewBox="0 0 16 17" fill="none" xmlns="http://www.w3.org/2000/svg">
<rect width="16" height="17" fill="#545454"/>
<rect width="1441" height="3399" transform="translate(-120 -704)" fill="white"/>
<path d="M14.6654 7.36448C14.732 7.03114 14.4654 6.63114 14.132 6.63114L10.332 6.09781L8.5987 2.63114C8.53203 2.49781 8.46536 2.43114 8.33203 2.36448C7.9987 2.16448 7.5987 2.29781 7.3987 2.63114L5.73203 6.09781L1.93203 6.63114C1.73203 6.63114 1.5987 6.69781 1.53203 6.83114C1.26536 7.09781 1.26536 7.49781 1.53203 7.76448L4.26536 10.4311L3.5987 14.2311C3.5987 14.3645 3.5987 14.4978 3.66536 14.6311C3.86536 14.9645 4.26536 15.0978 4.5987 14.8978L7.9987 13.0978L11.3987 14.8978C11.4654 14.9645 11.5987 14.9645 11.732 14.9645C11.7987 14.9645 11.7987 14.9645 11.8654 14.9645C12.1987 14.8978 12.4654 14.5645 12.3987 14.1645L11.732 10.3645L14.4654 7.69781C14.5987 7.63114 14.6654 7.49781 14.6654 7.36448Z" fill="#FF3500"/>
</svg>
