<svg width="65" height="68" viewBox="0 0 65 68" fill="none" xmlns="http://www.w3.org/2000/svg">
<path d="M32.5009 65.2429C50.0229 65.2429 64.2187 50.9453 64.2187 33.3187C64.2187 15.6922 50.0229 1.39453 32.5009 1.39453C14.979 1.39453 0.783203 15.6922 0.783203 33.3187C0.783203 50.9453 14.979 65.2429 32.5009 65.2429Z" fill="#FE3400" stroke="black" stroke-width="1.5"/>
<path d="M32.5018 58.506C46.3553 58.506 57.5857 47.2294 57.5857 33.3189C57.5857 19.4085 46.3553 8.13184 32.5018 8.13184C18.6484 8.13184 7.41797 19.4085 7.41797 33.3189C7.41797 47.2294 18.6484 58.506 32.5018 58.506Z" fill="white"/>
<path d="M56.8357 33.3189C56.8357 46.8181 45.9382 57.756 32.5018 57.756C19.0655 57.756 8.16797 46.8181 8.16797 33.3189C8.16797 19.8198 19.0655 8.88184 32.5018 8.88184C45.9382 8.88184 56.8357 19.8198 56.8357 33.3189Z" stroke="black" stroke-opacity="0.8" stroke-width="1.5"/>
<path opacity="0.8" d="M32.5018 31.667C31.8824 31.667 31.4695 31.2541 31.4695 30.6348V20.7251C31.4695 20.1058 31.8824 19.6929 32.5018 19.6929C33.1211 19.6929 33.534 20.1058 33.534 20.7251V30.6348C33.534 31.1509 33.1211 31.667 32.5018 31.667ZM29.405 34.3509H19.4953C18.876 34.3509 18.4631 33.938 18.4631 33.3187C18.4631 32.6993 18.876 32.2864 19.4953 32.2864H29.405C30.0243 32.2864 30.4372 32.6993 30.4372 33.3187C30.4372 33.938 29.9211 34.3509 29.405 34.3509ZM32.5018 15.0477C31.8824 15.0477 31.4695 14.6348 31.4695 14.0154V8.54447C31.4695 7.92511 31.8824 7.51221 32.5018 7.51221C33.1211 7.51221 33.534 7.92511 33.534 8.54447V14.0154C33.534 14.6348 33.1211 15.0477 32.5018 15.0477ZM13.1985 34.7638H7.72757C7.10822 34.7638 6.69531 34.3509 6.69531 33.7316C6.69531 33.1122 7.10822 32.6993 7.72757 32.6993H13.1985C13.8179 32.6993 14.2308 33.1122 14.2308 33.7316C14.2308 34.3509 13.8179 34.7638 13.1985 34.7638ZM57.276 34.7638H51.805C51.1856 34.7638 50.7727 34.3509 50.7727 33.7316C50.7727 33.1122 51.1856 32.6993 51.805 32.6993H57.276C57.8953 32.6993 58.3082 33.1122 58.3082 33.7316C58.3082 34.3509 57.8953 34.7638 57.276 34.7638Z" fill="black"/>
<path d="M44.8874 66.8943C52.0917 66.8943 57.9213 61.0067 57.9213 53.7572C57.9213 46.5077 52.0917 40.6201 44.8874 40.6201C37.6831 40.6201 31.8535 46.5077 31.8535 53.7572C31.8535 61.0067 37.6831 66.8943 44.8874 66.8943Z" fill="#0269B8" stroke="black" stroke-width="1.5"/>
<path d="M41.584 55.0995C42.7195 54.4802 43.5453 53.8608 43.9582 53.3447C44.3711 52.8286 44.5776 52.106 44.5776 51.177C44.5776 50.1447 44.2679 49.3189 43.5453 48.6995C42.8227 48.0802 41.9969 47.7705 40.9647 47.7705C39.726 47.7705 38.7969 48.1834 38.0744 48.906C37.3518 49.6286 37.0421 50.6608 37.0421 51.8995V52.2092H38.9002V51.8995C38.9002 51.177 39.1066 50.5576 39.4163 50.1447C39.726 49.835 40.1389 49.6286 40.7582 49.6286C41.2744 49.6286 41.7905 49.7318 42.1002 50.0415C42.4098 50.3512 42.6163 50.7641 42.6163 51.177C42.6163 51.6931 42.5131 52.0028 42.3066 52.3124C42.1002 52.6221 41.584 52.9318 40.8615 53.3447C39.3131 54.1705 38.2808 54.9963 37.6615 55.7189C37.0421 56.4415 36.7324 57.4737 36.7324 58.6092V58.9189H44.5776V56.9576H39.0034C39.1066 56.8544 39.1066 56.7512 39.2098 56.6479C39.6227 56.3382 40.4486 55.8221 41.584 55.0995ZM51.7002 54.7899V47.8737H50.0486L44.9905 54.8931V56.5447H49.6356V59.1253H51.5969V56.5447H53.1453V54.7899H51.7002ZM47.1582 54.7899L49.6356 51.2802V54.7899H47.1582Z" fill="white"/>
<path d="M32.5013 37.0348C30.4368 37.0348 28.7852 35.3832 28.7852 33.3187C28.7852 31.2542 30.4368 29.6025 32.5013 29.6025C34.5658 29.6025 36.2174 31.2542 36.2174 33.3187C36.2174 35.3832 34.5658 37.0348 32.5013 37.0348ZM32.5013 31.6671C31.5723 31.6671 30.8497 32.3896 30.8497 33.3187C30.8497 34.2477 31.5723 34.9703 32.5013 34.9703C33.4303 34.9703 34.1529 34.2477 34.1529 33.3187C34.1529 32.3896 33.4303 31.6671 32.5013 31.6671Z" fill="#333333"/>
</svg>
