<svg width="36" height="37" viewBox="0 0 36 37" fill="none" xmlns="http://www.w3.org/2000/svg">
<path d="M31.5003 9.91843C30.508 10.3579 29.4408 10.6512 28.315 10.7899C29.4595 10.1104 30.34 9.02668 30.7533 7.74643C29.6823 8.37418 28.4958 8.83543 27.2335 9.07843C26.2255 8.00968 24.7878 7.34668 23.1948 7.34668C20.1348 7.34668 17.6545 9.80518 17.6545 12.8367C17.6545 13.2657 17.7048 13.6834 17.7993 14.0892C13.1958 13.8582 9.1128 11.6697 6.3813 8.34868C5.9013 9.16018 5.6313 10.1104 5.6313 11.1132C5.6313 13.0189 6.60705 14.6967 8.09505 15.6852C7.1868 15.6574 6.3318 15.4047 5.5833 14.9997C5.5833 15.0162 5.5833 15.0409 5.5833 15.0642C5.5833 17.7274 7.49355 19.9452 10.0255 20.4499C9.5628 20.5767 9.0738 20.6472 8.5698 20.6472C8.21205 20.6472 7.8633 20.6067 7.5258 20.5459C8.2308 22.7224 10.276 24.3132 12.6993 24.3604C10.8033 25.8304 8.4153 26.7109 5.8188 26.7109C5.3703 26.7109 4.93155 26.6854 4.49805 26.6329C6.9513 28.1862 9.8643 29.0967 12.991 29.0967C23.1798 29.0967 28.7538 20.7297 28.7538 13.4712C28.7538 13.2334 28.7463 12.9964 28.735 12.7624C29.8225 11.9944 30.76 11.0254 31.5003 9.91843Z" fill="#282828"/>
</svg>
