<svg width="32" height="33" viewBox="0 0 32 33" fill="none" xmlns="http://www.w3.org/2000/svg">
<path d="M15.9995 4.86328C11.5344 4.86328 5.73906 5.98203 5.73906 5.98203L5.72448 5.9987C3.69085 6.32394 2.13281 8.07141 2.13281 10.1966V16.5966V16.5987V22.9966V22.9987C2.1348 24.0137 2.49854 24.9947 3.15873 25.7656C3.81892 26.5365 4.73231 27.0469 5.7349 27.2049L5.73906 27.2112C5.73906 27.2112 11.5344 28.332 15.9995 28.332C20.4645 28.332 26.2599 27.2112 26.2599 27.2112L26.262 27.2091C27.2657 27.0514 28.1801 26.5406 28.8408 25.7688C29.5015 24.997 29.8651 24.0147 29.8661 22.9987V22.9966V16.5987V16.5966V10.1966C29.8647 9.18128 29.5011 8.19976 28.8409 7.42841C28.1807 6.65706 27.267 6.14643 26.2641 5.98828L26.2599 5.98203C26.2599 5.98203 20.4645 4.86328 15.9995 4.86328ZM12.7995 11.6883L21.3328 16.5966L12.7995 21.5049V11.6883Z" fill="#282828"/>
</svg>
