<svg width="12" height="10" viewBox="0 0 12 10" fill="none" xmlns="http://www.w3.org/2000/svg">
<path d="M4.07643 5.09554C4.35669 5.09554 4.59669 4.99567 4.79643 4.79592C4.99618 4.59618 5.09588 4.35635 5.09554 4.07643C5.09554 3.79618 4.99567 3.55618 4.79592 3.35643C4.59618 3.15669 4.35635 3.05699 4.07643 3.05732C3.79618 3.05732 3.55618 3.1572 3.35643 3.35694C3.15669 3.55669 3.05699 3.79652 3.05732 4.07643C3.05732 4.35669 3.1572 4.59669 3.35694 4.79643C3.55669 4.99618 3.79652 5.09588 4.07643 5.09554ZM4.07643 8.84076C5.11253 7.8896 5.8811 7.02539 6.38217 6.24815C6.88323 5.47091 7.13376 4.78098 7.13376 4.17834C7.13376 3.25265 6.83856 2.49478 6.24815 1.90471C5.65775 1.31465 4.93384 1.01945 4.07643 1.01911C3.21868 1.01911 2.49461 1.31431 1.9042 1.90471C1.3138 2.49512 1.01877 3.25299 1.01911 4.17834C1.01911 4.78132 1.26964 5.47142 1.7707 6.24866C2.27176 7.0259 3.04034 7.88994 4.07643 8.84076ZM4.07643 10C4.00849 10 3.94055 9.98726 3.87261 9.96178C3.80467 9.93631 3.74522 9.90234 3.69427 9.85987C2.45435 8.76433 1.52866 7.74726 0.917198 6.80866C0.305733 5.87006 0 4.99329 0 4.17834C0 2.90446 0.409851 1.8896 1.22955 1.13376C2.04926 0.377919 2.99822 0 4.07643 0C5.15499 0 6.10412 0.377919 6.92382 1.13376C7.74352 1.8896 8.15321 2.90446 8.15287 4.17834C8.15287 4.99363 7.84713 5.87057 7.23567 6.80917C6.6242 7.74777 5.69851 8.76467 4.4586 9.85987C4.40764 9.90234 4.3482 9.93631 4.28025 9.96178C4.21231 9.98726 4.14437 10 4.07643 10Z" fill="#4A4A4A"/>
</svg>
