<svg width="8" height="8" viewBox="0 0 8 8" fill="none" xmlns="http://www.w3.org/2000/svg">
<path d="M3.99983 6.36432L2.30324 7.43445C2.22829 7.48439 2.14993 7.5058 2.06817 7.49866C1.98641 7.49153 1.91486 7.46299 1.85354 7.41305C1.79222 7.36311 1.74452 7.30062 1.71045 7.22556C1.67639 7.15051 1.66957 7.06676 1.69001 6.9743L2.13971 4.95175L0.637312 3.59268C0.569176 3.52847 0.526658 3.45528 0.509761 3.37309C0.492863 3.2909 0.497905 3.21072 0.524887 3.13252C0.552142 3.05405 0.593023 2.98984 0.647532 2.9399C0.70204 2.88996 0.77699 2.85786 0.87238 2.84359L2.85514 2.66167L3.62167 0.756832C3.65574 0.671221 3.70861 0.607013 3.78029 0.564208C3.85197 0.521403 3.92515 0.5 3.99983 0.5C4.07478 0.5 4.14795 0.521403 4.21936 0.564208C4.29077 0.607013 4.34364 0.671221 4.37798 0.756832L5.14451 2.66167L7.12727 2.84359C7.22266 2.85786 7.29761 2.88996 7.35212 2.9399C7.40663 2.98984 7.44751 3.05405 7.47476 3.13252C7.50202 3.211 7.5072 3.29133 7.4903 3.37352C7.4734 3.4557 7.43075 3.52876 7.36234 3.59268L5.85994 4.95175L6.30964 6.9743C6.33008 7.06704 6.32327 7.15094 6.2892 7.22599C6.25513 7.30104 6.20743 7.3634 6.14611 7.41305C6.08479 7.46299 6.01325 7.49153 5.93148 7.49866C5.84972 7.5058 5.77136 7.48439 5.69641 7.43445L3.99983 6.36432Z" fill="white"/>
</svg>
